<?xml version="1.0" encoding="UTF-8" standalone="no" ?>
<!DOCTYPE svg PUBLIC "-//W3C//DTD SVG 1.1//EN" "http://www.w3.org/Graphics/SVG/1.1/DTD/svg11.dtd">
<svg xmlns="http://www.w3.org/2000/svg" xmlns:xlink="http://www.w3.org/1999/xlink" version="1.1" width="1200" height="1200" viewBox="0 0 1200 1200" xml:space="preserve">
<desc>Created with Fabric.js 5.2.4</desc>
<defs>
</defs>
<rect x="0" y="0" width="100%" height="100%" fill="transparent"></rect>
<g transform="matrix(1 0 0 1 600 600)" id="09905acc-7629-4c28-978d-623b90fbd159"  >
<rect style="stroke: none; stroke-width: 1; stroke-dasharray: none; stroke-linecap: butt; stroke-dashoffset: 0; stroke-linejoin: miter; stroke-miterlimit: 4; fill: rgb(255,255,255); fill-rule: nonzero; opacity: 1; visibility: hidden;" vector-effect="non-scaling-stroke"  x="-600" y="-600" rx="0" ry="0" width="1200" height="1200" />
</g>
<g transform="matrix(Infinity NaN NaN Infinity 0 0)" id="9572bd54-9dca-4f07-913e-30cd6a645a04"  >
</g>
<g transform="matrix(1.54 0 0 1.54 600 600)"  >
<g style="opacity: 1;" vector-effect="non-scaling-stroke"   >
		<g transform="matrix(3.78 0 0 3.78 -138.77 -11.81)"  >
<path style="stroke: none; stroke-width: 1; stroke-dasharray: none; stroke-linecap: butt; stroke-dashoffset: 0; stroke-linejoin: miter; stroke-miterlimit: 4; fill: rgb(44,87,132); fill-rule: evenodd; opacity: 1;" vector-effect="non-scaling-stroke"  transform=" translate(-65.31, -112.64)" d="M 90.6186 115.791 C 90.6832 115.8879 90.7316 115.9847 90.7639 116.0816 C 90.79620000000001 116.1785 90.81240000000001 116.3077 90.81240000000001 116.4692 L 90.81240000000001 116.5661 C 90.81240000000001 116.79220000000001 90.7639 116.9698 90.66700000000002 117.099 L 89.06830000000002 119.5214 C 88.35770000000002 120.5549 87.63910000000003 121.6046 86.91240000000002 122.6704 C 86.18570000000003 123.7363 85.40250000000002 124.7859 84.56270000000002 125.8195 C 83.98140000000002 126.49770000000001 83.35960000000001 127.18400000000001 82.69750000000002 127.8785 C 82.03540000000002 128.5729 81.31680000000001 129.2107 80.54160000000002 129.7921 C 78.70070000000001 131.2132 76.79510000000002 131.9238 74.82490000000001 131.9238 C 73.14540000000001 131.9238 71.75660000000002 131.3262 70.65850000000002 130.1312 C 69.43120000000002 128.7424 68.81750000000002 126.78840000000001 68.81750000000002 124.26920000000001 C 68.81750000000002 122.299 69.20510000000003 120.24810000000001 69.98020000000002 118.11640000000001 C 70.09510000000003 117.81340000000002 70.21330000000002 117.51670000000001 70.33530000000002 117.22510000000001 L 70.33670000000002 117.22460000000001 C 70.04210000000002 117.322 69.72880000000002 117.41050000000001 69.39880000000002 117.48660000000001 C 68.97900000000003 117.58350000000002 68.57530000000003 117.66420000000001 68.18770000000002 117.7288 C 67.80010000000001 117.7934 67.52560000000003 117.84190000000001 67.36410000000002 117.8742 L 66.00760000000002 118.1164 L 66.00760000000002 118.8916 C 66.00760000000002 120.9909 65.45850000000003 123.0903 64.36040000000003 125.1897 C 63.87590000000003 126.1586 63.286500000000025 127.1114 62.59210000000003 128.048 C 61.89760000000003 128.9847 61.13060000000003 129.8728 60.29080000000003 130.7126 C 58.643600000000035 132.3598 56.86720000000003 133.684 54.961700000000036 134.6853 C 53.960400000000035 135.202 52.98340000000004 135.5977 52.030600000000035 135.87220000000002 C 51.07780000000003 136.1467 50.165400000000034 136.28400000000002 49.293400000000034 136.28400000000002 C 47.969200000000036 136.28400000000002 46.943700000000035 135.92870000000002 46.217000000000034 135.21820000000002 C 45.49030000000003 134.50760000000002 45.126900000000035 133.52250000000004 45.126900000000035 132.26290000000003 C 45.126900000000035 130.61570000000003 45.67600000000004 128.93620000000004 46.774200000000036 127.22440000000003 C 47.25860000000004 126.48160000000003 47.83190000000003 125.75490000000003 48.494000000000035 125.04430000000004 C 49.15610000000004 124.33380000000004 49.90700000000003 123.63940000000004 50.746800000000036 122.96110000000003 C 52.10330000000003 121.86300000000003 53.62130000000003 120.82940000000004 55.30080000000004 119.86050000000003 C 56.980300000000035 118.89160000000003 58.72440000000004 118.03570000000003 60.53310000000004 117.29280000000003 C 60.37160000000004 116.42080000000003 60.10510000000004 115.54870000000003 59.73370000000004 114.67670000000003 C 59.36230000000004 113.80460000000002 58.91820000000004 112.99720000000002 58.40140000000004 112.25430000000003 C 57.94920000000004 111.60840000000003 57.31940000000004 110.94630000000002 56.512000000000036 110.26800000000003 C 55.70450000000004 109.58980000000003 54.735600000000034 109.20220000000003 53.60520000000004 109.10530000000003 L 53.31450000000004 109.10530000000003 C 52.95920000000004 109.10530000000003 52.66850000000004 108.99220000000003 52.442400000000035 108.76610000000002 C 52.21630000000003 108.54010000000002 52.10330000000003 108.24940000000002 52.10330000000003 107.89410000000002 C 52.10330000000003 107.53880000000002 52.21630000000003 107.24820000000003 52.442400000000035 107.02210000000002 C 52.66850000000004 106.79600000000002 52.95920000000004 106.68290000000002 53.31450000000004 106.68290000000002 L 53.65360000000004 106.68290000000002 C 54.687100000000044 106.68290000000002 55.73680000000004 106.44070000000002 56.80270000000004 105.95620000000002 C 57.86850000000004 105.47180000000003 58.853600000000036 104.80970000000002 59.757900000000035 103.96990000000002 C 60.72680000000003 103.09790000000002 61.46970000000003 102.12090000000002 61.986500000000035 101.03890000000003 C 62.503200000000035 99.95690000000003 62.76160000000004 98.89910000000003 62.76160000000004 97.86560000000003 C 62.76160000000004 96.79980000000003 62.55170000000004 95.87930000000003 62.131800000000034 95.10410000000003 C 61.711900000000036 94.32900000000004 61.162900000000036 93.69110000000003 60.484600000000036 93.19050000000003 C 59.80640000000004 92.68990000000002 59.023100000000035 92.31840000000003 58.13490000000004 92.07620000000003 C 57.24670000000004 91.83400000000003 56.35050000000004 91.71280000000003 55.44610000000004 91.71280000000003 C 54.21880000000004 91.71280000000003 52.830000000000034 92.02770000000002 51.279700000000034 92.65750000000003 C 49.729400000000034 93.28740000000003 48.29220000000004 94.11900000000003 46.967900000000036 95.15260000000002 C 46.515800000000034 95.50790000000002 46.01510000000003 95.95200000000003 45.46610000000003 96.48490000000002 C 44.91700000000003 97.01780000000002 44.400200000000034 97.63140000000003 43.91580000000003 98.32580000000003 C 43.431300000000036 99.02030000000003 43.027600000000035 99.79540000000003 42.704600000000035 100.65130000000003 C 42.381600000000034 101.50720000000004 42.22010000000004 102.41960000000003 42.22010000000004 103.38860000000004 C 42.22010000000004 103.45310000000003 42.236300000000035 103.51780000000004 42.268600000000035 103.58230000000005 L 42.36550000000003 103.58230000000005 C 42.882300000000036 103.58230000000005 43.318300000000036 103.76810000000005 43.673600000000036 104.13950000000004 C 44.02880000000004 104.51090000000003 44.206500000000034 104.95500000000004 44.206500000000034 105.47180000000004 C 44.206500000000034 106.02080000000005 44.02070000000003 106.46490000000004 43.64930000000003 106.80400000000004 C 43.27790000000003 107.14320000000005 42.78540000000003 107.31270000000005 42.17170000000003 107.31270000000005 C 42.17170000000003 107.31270000000005 42.13940000000003 107.29660000000005 42.07480000000003 107.26430000000005 C 41.20280000000003 107.16740000000004 40.58910000000003 106.65060000000005 40.23380000000003 105.71400000000006 C 40.072300000000034 105.32640000000005 39.95930000000003 104.92270000000005 39.89470000000003 104.50280000000005 C 39.83010000000003 104.08300000000006 39.79780000000003 103.71150000000004 39.79780000000003 103.38860000000005 C 39.79780000000003 101.35380000000005 40.33070000000003 99.45630000000006 41.39650000000003 97.69600000000005 C 42.46240000000003 95.93580000000006 43.843100000000035 94.41780000000006 45.538700000000034 93.14200000000005 C 47.234400000000036 91.86630000000005 49.11570000000003 90.85690000000005 51.182800000000036 90.11410000000005 C 53.24990000000004 89.37120000000004 55.30080000000004 88.99980000000005 57.335600000000035 88.99980000000005 C 58.853600000000036 88.99980000000005 60.26660000000003 89.20170000000005 61.574700000000036 89.60540000000005 C 62.882700000000035 90.00910000000005 64.02130000000004 90.58240000000005 64.99020000000003 91.32530000000004 C 65.99140000000003 92.13270000000004 66.75850000000003 93.08550000000004 67.29140000000002 94.18360000000004 C 67.82430000000002 95.28180000000005 68.09080000000003 96.46060000000004 68.09080000000003 97.72030000000004 C 68.09080000000003 99.20600000000003 67.68710000000003 100.64320000000004 66.87960000000002 102.03200000000004 C 66.10450000000003 103.25940000000004 65.07090000000002 104.37360000000004 63.779000000000025 105.37490000000004 C 62.261000000000024 106.56990000000003 60.533100000000026 107.50650000000005 58.59520000000003 108.18480000000004 C 59.24120000000003 108.54010000000004 59.911300000000026 108.95190000000004 60.60570000000003 109.42020000000004 C 61.300200000000025 109.88850000000004 61.96230000000003 110.43760000000003 62.59210000000003 111.06740000000003 C 63.22190000000003 111.69720000000004 63.79520000000003 112.39970000000004 64.31190000000004 113.17480000000003 C 64.82870000000004 113.95000000000003 65.23240000000004 114.78970000000004 65.52310000000004 115.69410000000003 C 65.87840000000004 115.62950000000004 66.33860000000004 115.54060000000004 66.90380000000005 115.42760000000004 C 67.46900000000005 115.31460000000004 68.05040000000005 115.20150000000004 68.64790000000005 115.08850000000004 C 69.24540000000005 114.97540000000004 69.81870000000005 114.87850000000005 70.36780000000005 114.79780000000004 C 70.83470000000004 114.72920000000003 71.23390000000005 114.69510000000004 71.57120000000005 114.68990000000004 C 71.95220000000005 114.01520000000004 72.37090000000005 113.35390000000004 72.83860000000004 112.69040000000004 C 74.01550000000005 111.02080000000004 75.32550000000005 109.67050000000003 76.81120000000004 108.66930000000004 C 78.36150000000004 107.60340000000004 79.87950000000004 107.07050000000004 81.36520000000004 107.07050000000004 C 83.27080000000005 107.07050000000004 84.22360000000005 108.00710000000004 84.22360000000005 109.88040000000004 C 84.22360000000005 111.20460000000004 83.88450000000005 112.54500000000004 83.20620000000005 113.90150000000004 C 82.91550000000005 114.45060000000004 82.56840000000005 115.02390000000004 82.16460000000005 115.62140000000004 C 81.76090000000005 116.21890000000003 81.28450000000005 116.80830000000003 80.73540000000006 117.38970000000003 C 79.70190000000005 118.52010000000003 78.59570000000005 119.55370000000003 77.41680000000005 120.49030000000003 C 76.23790000000005 121.42700000000004 75.18020000000006 122.21830000000003 74.24350000000005 122.86420000000004 C 73.79140000000005 124.38220000000004 73.56530000000005 125.67410000000004 73.56530000000005 126.74000000000004 C 73.56530000000005 127.28900000000004 73.62180000000005 127.73310000000004 73.73490000000005 128.07220000000004 C 73.84790000000005 128.41140000000004 73.99320000000006 128.66980000000004 74.17090000000006 128.84740000000005 C 74.34850000000006 129.02500000000006 74.55040000000005 129.13810000000004 74.77650000000006 129.18650000000005 C 75.00260000000006 129.23500000000004 75.24480000000005 129.25920000000005 75.50320000000005 129.25920000000005 C 75.82610000000005 129.25920000000005 76.21370000000005 129.19460000000004 76.66590000000005 129.06540000000004 C 77.11810000000006 128.93620000000004 77.63480000000006 128.68590000000003 78.21620000000004 128.31450000000004 C 78.79750000000004 127.94300000000004 79.45160000000004 127.44240000000003 80.17830000000005 126.81260000000003 C 80.90500000000004 126.18280000000003 81.70440000000005 125.35110000000003 82.57640000000005 124.31760000000003 C 83.19010000000004 123.57470000000002 83.78760000000005 122.81570000000002 84.36900000000004 122.04060000000003 C 84.95030000000004 121.26540000000003 85.49940000000004 120.49840000000003 86.01610000000004 119.73940000000003 C 86.53290000000004 118.98040000000003 87.00930000000004 118.26170000000003 87.44530000000003 117.58350000000003 C 87.88140000000003 116.90520000000004 88.27700000000003 116.30770000000003 88.63230000000003 115.79100000000003 C 88.63230000000003 115.75870000000002 88.66460000000004 115.71020000000003 88.72920000000003 115.64560000000003 C 88.98750000000004 115.38720000000004 89.29440000000004 115.25800000000002 89.64970000000004 115.25800000000002 L 89.74650000000004 115.25800000000002 C 90.16640000000004 115.25800000000002 90.45710000000004 115.43570000000003 90.61860000000004 115.79100000000003 z M 47.5977 132.6989 C 47.6623 133.1834 47.783500000000004 133.466 47.9611 133.54680000000002 C 48.1387 133.62750000000003 48.276 133.66790000000003 48.3729 133.66790000000003 C 48.8251 133.66790000000003 49.3903 133.49830000000003 50.0685 133.15920000000003 C 50.7468 132.82000000000002 51.4493 132.40020000000004 52.176 131.89960000000002 C 52.9027 131.39890000000003 53.621300000000005 130.85790000000003 54.3318 130.27660000000003 C 55.0424 129.69520000000003 55.639900000000004 129.14620000000002 56.1244 128.62940000000003 C 58.8697 125.85180000000003 60.3877 122.92880000000004 60.6784 119.86050000000003 C 59.1281 120.53880000000002 57.6182 121.32200000000003 56.1486 122.21020000000003 C 54.679100000000005 123.09840000000003 53.2822 124.07540000000003 51.958 125.14120000000003 C 50.3108 126.46540000000003 49.1642 127.78160000000003 48.5182 129.08960000000002 C 47.8723 130.39770000000001 47.5493 131.47160000000002 47.5493 132.31130000000002 C 47.5493 132.31130000000002 47.565400000000004 132.3436 47.5977 132.40820000000002 L 47.5977 132.6989 z M 75.8908 118.5524 C 76.4075 118.13260000000001 76.9081 117.6965 77.3926 117.2444 C 77.8771 116.7922 78.3454 116.3239 78.7975 115.8394 C 80.7677 113.7723 81.7528 111.88289999999999 81.7528 110.1711 C 81.7528 109.9127 81.7367 109.7674 81.70439999999999 109.73509999999999 C 81.60749999999999 109.7674 81.40559999999999 109.90459999999999 81.0988 110.14689999999999 C 80.792 110.38909999999998 80.36399999999999 110.8817 79.8149 111.62449999999998 C 79.3628 112.23819999999998 78.8864 112.94869999999999 78.38579999999999 113.75619999999998 C 77.8851 114.56359999999998 77.39259999999999 115.43569999999998 76.90809999999999 116.37229999999998 C 76.74659999999999 116.72759999999998 76.57709999999999 117.09089999999998 76.39939999999999 117.46239999999999 C 76.22179999999999 117.83379999999998 76.05219999999998 118.1972 75.89079999999998 118.55239999999999 z" stroke-linecap="round" />
</g>
		<g transform="matrix(3.78 0 0 3.78 -245.79 -14.28)"  >
<path style="stroke: none; stroke-width: 1; stroke-dasharray: none; stroke-linecap: butt; stroke-dashoffset: 0; stroke-linejoin: miter; stroke-miterlimit: 4; fill: rgb(44,87,132); fill-rule: evenodd; opacity: 1;" vector-effect="non-scaling-stroke"  transform=" translate(-36.99, -111.99)" d="M 50.9406 109.687 C 50.230000000000004 112.0124 49.438700000000004 114.4105 48.566700000000004 116.8813 C 47.6946 119.3521 46.645 121.6533 45.41760000000001 123.785 C 44.028800000000004 126.1104 42.49470000000001 127.90299999999999 40.815200000000004 129.1626 C 38.81270000000001 130.61599999999999 36.616400000000006 131.3427 34.226400000000005 131.3427 C 32.353100000000005 131.3427 30.609000000000005 130.84210000000002 28.994100000000003 129.8409 C 28.251300000000004 129.3887 27.597200000000004 128.8719 27.032000000000004 128.2906 C 26.466800000000003 127.70920000000001 26.006600000000002 127.06320000000001 25.651300000000003 126.35270000000001 C 24.230200000000004 126.83720000000001 22.906000000000002 127.0794 21.678600000000003 127.0794 C 20.7097 127.0794 19.7327 126.88560000000001 18.747600000000002 126.498 C 17.762500000000003 126.1104 16.866300000000003 125.5937 16.0588 124.9477 C 15.122200000000001 124.1726 14.411600000000002 123.2602 13.927100000000001 122.2105 L 16.1799 121.1446 C 16.8396 120.8326 16.8824 122.38 17.3669 122.86449999999999 C 17.851300000000002 123.34899999999999 18.3843 123.7366 18.965600000000002 124.0272 C 19.547 124.3179 20.1122 124.4632 20.6613 124.4632 C 21.7594 124.4632 23.067500000000003 124.108 24.5855 123.3974 C 24.101 121.944 23.8588 120.313 23.8588 118.5043 C 23.8588 116.631 24.0929 114.895 24.5612 113.2963 C 25.0296 111.6975 25.6755 110.3087 26.4991 109.1298 C 27.322699999999998 107.9509 28.2916 107.0304 29.4059 106.3683 C 30.5202 105.70620000000001 31.7395 105.3752 33.0637 105.3752 C 35.582899999999995 105.3752 37.423899999999996 106.06960000000001 38.5866 107.45840000000001 C 39.1357 108.10430000000001 39.474799999999995 108.75030000000001 39.604 109.39630000000001 C 39.7332 110.04220000000001 39.7978 110.55900000000001 39.7978 110.94660000000002 C 39.7978 112.20620000000002 39.4264 113.56270000000002 38.6835 115.01610000000002 C 38.3282 115.69440000000002 37.9084 116.38880000000002 37.4239 117.09930000000003 C 36.939400000000006 117.80990000000003 36.4065 118.50430000000003 35.825100000000006 119.18250000000003 C 34.694700000000005 120.47440000000003 33.459300000000006 121.64520000000003 32.11900000000001 122.69490000000003 C 30.778600000000008 123.74460000000003 29.397900000000007 124.62470000000003 27.976700000000008 125.33530000000003 C 28.202800000000007 125.72290000000004 28.48540000000001 126.12660000000004 28.824600000000007 126.54650000000004 C 29.163700000000006 126.96640000000004 29.583600000000008 127.35390000000004 30.084200000000006 127.70920000000004 C 30.584800000000005 128.06450000000004 31.174300000000006 128.35510000000005 31.852500000000006 128.58120000000005 C 32.5307 128.80730000000005 33.30590000000001 128.92040000000006 34.17790000000001 128.92040000000006 C 35.56680000000001 128.92040000000006 36.87480000000001 128.29060000000007 38.10220000000001 127.03090000000006 C 39.135700000000014 126.06200000000005 40.12080000000001 124.62470000000006 41.05740000000001 122.71920000000006 C 42.22010000000001 120.29680000000006 43.205200000000005 117.81800000000005 44.01270000000001 115.28260000000006 C 44.82010000000001 112.74720000000006 45.56300000000001 110.31670000000005 46.241200000000006 107.99130000000005 C 46.85490000000001 105.85960000000006 47.4363 103.90560000000005 47.98530000000001 102.12920000000005 C 48.53440000000001 100.35280000000006 49.18030000000001 98.78640000000006 49.92320000000001 97.42990000000006 C 50.66600000000001 95.91190000000006 51.55420000000001 94.76530000000005 52.58780000000001 93.99020000000006 C 53.68590000000001 93.08580000000006 54.96170000000001 92.63360000000006 56.41510000000001 92.63360000000006 C 57.41630000000001 92.63360000000006 58.41750000000001 92.89200000000005 59.41880000000001 93.40880000000006 C 59.83870000000001 93.63490000000006 60.048600000000015 94.00630000000005 60.048600000000015 94.52310000000006 C 60.048600000000015 94.84600000000006 59.94360000000002 95.12870000000005 59.73370000000001 95.37090000000006 C 59.523800000000016 95.61310000000006 59.24120000000001 95.73420000000006 58.885900000000014 95.73420000000006 C 58.65980000000001 95.73420000000006 58.41750000000001 95.66960000000006 58.15920000000001 95.54050000000005 L 58.01380000000001 95.54050000000005 C 56.94800000000001 95.54050000000005 55.84990000000001 96.70320000000005 54.71940000000001 99.02860000000005 C 54.13810000000001 100.25590000000005 53.572900000000004 101.66090000000005 53.02380000000001 103.24350000000005 C 52.474700000000006 104.82610000000005 51.925700000000006 106.53790000000005 51.37660000000001 108.37890000000006 L 50.94060000000001 109.68700000000005 z M 34.8078 108.5242 C 34.4202 108.0398 33.855 107.7975 33.1121 107.7975 C 31.432599999999997 107.7975 29.995399999999997 108.5565 28.8003 110.0745 C 27.9929 111.10810000000001 27.3631 112.3677 26.9109 113.8534 C 26.4587 115.33909999999999 26.2326 116.90549999999999 26.2326 118.55269999999999 C 26.2326 119.74779999999998 26.378 120.9266 26.6687 122.08939999999998 C 27.7022 121.34649999999998 28.7196 120.47439999999999 29.7208 119.47319999999998 C 30.7221 118.47199999999998 31.642500000000002 117.42229999999998 32.4823 116.32419999999998 C 33.386700000000005 115.09689999999998 34.081 113.95029999999997 34.5655 112.88439999999997 C 35.05 111.81859999999998 35.2922 110.93039999999998 35.2922 110.21989999999997 C 35.2922 109.57389999999997 35.130700000000004 109.00869999999996 34.8078 108.52419999999996 z" stroke-linecap="round" />
</g>
		<g transform="matrix(3.78 0 0 3.78 232.15 0)"  >
<path style="stroke: none; stroke-width: 1; stroke-dasharray: none; stroke-linecap: butt; stroke-dashoffset: 0; stroke-linejoin: miter; stroke-miterlimit: 4; fill: rgb(44,87,132); fill-rule: evenodd; opacity: 1;" vector-effect="non-scaling-stroke"  transform=" translate(-163.44, -115.77)" d="M 184.446 96.4122 C 183.7026 97.3486 182.9517 98.2528 182.1933 99.1249 C 181.4342 99.9969 180.69899999999998 100.8047 179.9885 101.5474 C 179.2779 102.28999999999999 178.6078 102.952 177.97809999999998 103.5338 C 177.3483 104.115 176.79109999999997 104.5674 176.30649999999997 104.8898 C 175.30579999999998 106.89269999999999 174.35289999999998 108.871 173.44869999999997 110.8253 C 172.54369999999997 112.7788 171.70459999999997 114.7084 170.92899999999997 116.6141 C 171.05839999999998 116.48549999999999 171.21169999999998 116.3718 171.38969999999998 116.27529999999999 C 171.56689999999998 116.17809999999999 171.73669999999998 116.1295 171.89829999999998 116.1295 C 172.05979999999997 116.1295 172.17269999999996 116.1459 172.23709999999997 116.17809999999999 C 173.27069999999998 116.11379999999998 174.32079999999996 115.79889999999999 175.38649999999996 115.23349999999999 C 176.45229999999995 114.66799999999999 177.47769999999994 113.9575 178.46269999999996 113.10189999999999 C 179.44769999999997 112.24629999999999 180.39229999999995 111.32559999999998 181.29659999999996 110.34059999999998 C 182.20079999999996 109.35559999999998 183.02499999999995 108.39449999999998 183.76769999999996 107.45809999999999 L 183.81629999999996 107.4095 C 183.88059999999996 107.3445 183.97779999999995 107.2637 184.10649999999995 107.1672 C 184.23589999999996 107.07 184.42959999999997 107.0221 184.68839999999994 107.0221 C 185.01069999999996 107.0221 185.28519999999995 107.13499999999999 185.51179999999994 107.3609 C 185.73769999999993 107.5868 185.85059999999993 107.8613 185.85059999999993 108.1844 C 185.85059999999993 108.5075 185.73769999999993 108.782 185.51179999999994 109.0078 C 184.67189999999994 110.0093 183.80809999999994 111.0025 182.91949999999994 111.9875 C 182.03179999999995 112.9725 181.07069999999993 113.91709999999999 180.03709999999995 114.82209999999999 C 178.16359999999995 116.40469999999999 176.33939999999996 117.4862 174.56229999999996 118.06729999999999 C 175.56379999999996 119.23029999999999 176.38729999999995 120.73209999999999 177.03349999999998 122.5735 C 177.4209 123.8008 177.71999999999997 125.13289999999999 177.92949999999996 126.57039999999999 C 178.13959999999997 128.00709999999998 178.24429999999995 129.5015 178.24429999999995 131.0511 C 178.24429999999995 133.24779999999998 178.04239999999996 135.315 177.63929999999996 137.25289999999998 C 177.23539999999997 139.1907 176.64599999999996 140.9184 175.87039999999996 142.43669999999997 C 175.06339999999997 144.05139999999997 174.04549999999995 145.32739999999998 172.81819999999996 146.26369999999997 C 171.52649999999997 147.26519999999996 170.07329999999996 147.76559999999998 168.45859999999996 147.76559999999998 C 165.84239999999997 147.76559999999998 163.79159999999996 146.68329999999997 162.30549999999997 144.51959999999997 C 161.59499999999997 143.55109999999996 161.06249999999997 142.37979999999996 160.70719999999997 141.00739999999996 C 160.35119999999998 139.63499999999996 160.17389999999997 138.12489999999997 160.17389999999997 136.47729999999996 C 160.17389999999997 134.76599999999996 160.44019999999998 132.70699999999997 160.97349999999997 130.30019999999996 C 161.50599999999997 127.89419999999996 162.28979999999999 125.18969999999996 163.32269999999997 122.18529999999996 C 163.68909999999997 121.11279999999995 164.07959999999997 120.02609999999996 164.49459999999996 118.92369999999995 L 164.12219999999996 119.30289999999995 C 163.16929999999996 120.25569999999995 162.14389999999997 121.10389999999995 161.04599999999996 121.84649999999995 C 159.94809999999995 122.55709999999995 158.88229999999996 122.91229999999995 157.84869999999995 122.91229999999995 C 156.52409999999995 122.91229999999995 155.52339999999995 122.44409999999995 154.84499999999994 121.50769999999994 C 154.16669999999993 120.69999999999995 153.82709999999994 119.50479999999995 153.82709999999994 117.92219999999995 C 153.82709999999994 117.26709999999994 153.87269999999995 116.57969999999995 153.96319999999994 115.85949999999994 C 153.50179999999995 116.48849999999995 153.02089999999995 117.11149999999994 152.51899999999995 117.72849999999994 C 151.93789999999996 118.40689999999994 151.31639999999996 119.09349999999993 150.65449999999996 119.78749999999994 C 149.99179999999996 120.48229999999994 149.27309999999994 121.11959999999993 148.49819999999997 121.70139999999994 C 146.65759999999997 123.12249999999993 144.75189999999998 123.83299999999994 142.78119999999996 123.83299999999994 C 141.10209999999995 123.83299999999994 139.71319999999994 123.23539999999994 138.61529999999996 122.04029999999995 C 137.38789999999997 120.65139999999994 136.77389999999997 118.69779999999994 136.77389999999997 116.17809999999994 C 136.77389999999997 114.20809999999994 137.16129999999998 112.15729999999995 137.93689999999998 110.02569999999994 C 138.29219999999998 109.08859999999994 138.7035 108.16039999999994 139.17249999999999 107.23979999999995 C 139.64069999999998 106.31909999999995 140.1814 105.43949999999995 140.79539999999997 104.59959999999995 C 141.95769999999996 102.91979999999995 143.28229999999996 101.57949999999995 144.76759999999996 100.57809999999995 C 146.31809999999996 99.51229999999995 147.83629999999997 98.97979999999995 149.32169999999996 98.97979999999995 C 151.22739999999996 98.97979999999995 152.18019999999996 99.91619999999996 152.18019999999996 101.78969999999995 C 152.18019999999996 103.11349999999996 151.84139999999996 104.45449999999995 151.16309999999996 105.81049999999995 C 150.87209999999996 106.35949999999995 150.52509999999995 106.93309999999995 150.12119999999996 107.53069999999995 C 149.71729999999997 108.12829999999995 149.24089999999995 108.71759999999995 148.69189999999995 109.29879999999996 C 147.65829999999994 110.42959999999995 146.55219999999994 111.46249999999996 145.37339999999995 112.39959999999996 C 144.19469999999995 113.33599999999997 143.13639999999995 114.12729999999996 142.19999999999996 114.77349999999997 C 141.74829999999997 116.29099999999997 141.52169999999995 117.58339999999997 141.52169999999995 118.64919999999996 C 141.52169999999995 119.19819999999997 141.57849999999996 119.64239999999997 141.69139999999996 119.98119999999996 C 141.80439999999996 120.32079999999996 141.94949999999997 120.57879999999996 142.12749999999997 120.75679999999996 C 142.30469999999997 120.93409999999996 142.50669999999997 121.04699999999995 142.73329999999996 121.09559999999996 C 142.95919999999995 121.14419999999996 143.20149999999995 121.16819999999996 143.45949999999996 121.16819999999996 C 143.78259999999997 121.16819999999996 144.16999999999996 121.10389999999995 144.62249999999997 120.97449999999995 C 145.07499999999996 120.84509999999995 145.59109999999998 120.59529999999995 146.17299999999997 120.22359999999995 C 146.75409999999997 119.85189999999994 147.40849999999998 119.35149999999994 148.13469999999998 118.72179999999994 C 148.86169999999998 118.09199999999994 149.66119999999998 117.26029999999994 150.53329999999997 116.22669999999995 C 151.14659999999998 115.48399999999995 151.74419999999998 114.72489999999995 152.32529999999997 113.94999999999995 C 152.90719999999996 113.17449999999995 153.45619999999997 112.40779999999995 153.97299999999996 111.64869999999995 C 154.48979999999995 110.88959999999994 154.96619999999996 110.17079999999994 155.40219999999997 109.49249999999995 L 155.71559999999997 109.00859999999994 C 155.95789999999997 108.30099999999995 156.21669999999997 107.58229999999995 156.49199999999996 106.85229999999994 C 157.00879999999995 105.47989999999994 157.54199999999997 104.11499999999994 158.09099999999995 102.75819999999995 L 158.42979999999994 101.98339999999995 C 158.62349999999995 101.46659999999994 158.88229999999993 100.82039999999995 159.20459999999994 100.04559999999995 C 159.52769999999995 99.26999999999995 159.88299999999995 98.43079999999995 160.27119999999994 97.52659999999995 C 160.65859999999995 96.62159999999994 161.07819999999992 95.67699999999995 161.53069999999994 94.69199999999995 C 161.98239999999993 93.70699999999995 162.46699999999993 92.73019999999995 162.98389999999995 91.76089999999995 C 164.34059999999994 89.17759999999996 165.59179999999995 87.27189999999995 166.73839999999996 86.04459999999995 C 167.88489999999996 84.81719999999994 168.99109999999996 84.20319999999995 170.05689999999996 84.20319999999995 C 170.89679999999996 84.20319999999995 171.55869999999996 84.52629999999995 172.04339999999996 85.17249999999996 C 172.43079999999998 85.72149999999996 172.62449999999995 86.41549999999995 172.62449999999995 87.25539999999995 C 172.62449999999995 87.96599999999995 172.48759999999996 88.77369999999995 172.21309999999997 89.67789999999995 C 171.93859999999998 90.58219999999996 171.60729999999998 91.47819999999996 171.21989999999997 92.36669999999995 C 170.83249999999995 93.25449999999995 170.43679999999998 94.08619999999995 170.03299999999996 94.86169999999996 C 169.62909999999997 95.63659999999996 169.29779999999997 96.26629999999996 169.03969999999995 96.75099999999996 C 168.03829999999996 98.52729999999997 166.99719999999996 100.16669999999996 165.91489999999996 101.66849999999997 C 164.83269999999996 103.17029999999997 163.87239999999997 104.32509999999996 163.03249999999997 105.13209999999997 C 162.48349999999996 106.48879999999997 161.94199999999998 107.85379999999996 161.40949999999998 109.22619999999996 C 160.87619999999998 110.59859999999996 160.39979999999997 111.90669999999996 159.98019999999997 113.15049999999997 C 159.56059999999997 114.39359999999996 159.21289999999996 115.52439999999997 158.93839999999997 116.54159999999996 C 158.66389999999998 117.55869999999996 158.527 118.37469999999996 158.527 118.98799999999996 C 158.527 119.31109999999995 158.551 119.54519999999995 158.59959999999998 119.69099999999996 C 158.64819999999997 119.83609999999996 158.68859999999998 119.94089999999996 158.7207 120.00589999999995 C 158.75289999999998 120.03809999999996 158.7851 120.05379999999995 158.81719999999999 120.05379999999995 C 159.10819999999998 120.05379999999995 159.4799 119.90869999999995 159.93159999999997 119.61779999999995 L 159.93159999999997 119.56989999999995 C 161.8695 118.27749999999995 163.50889999999998 116.69489999999995 164.84919999999997 114.82209999999995 C 166.17749999999998 112.96579999999994 167.51319999999996 110.92019999999995 168.85719999999998 108.68319999999994 C 169.44879999999998 107.42899999999995 170.05909999999997 106.18069999999994 170.68659999999997 104.93839999999994 C 172.20489999999998 101.96689999999994 173.70669999999998 99.24599999999994 175.19209999999998 96.77489999999995 C 176.67819999999998 94.30459999999995 178.1478 92.13259999999994 179.60099999999997 90.25909999999995 C 181.08719999999997 88.28909999999995 182.50819999999996 86.75509999999994 183.86419999999998 85.65639999999995 C 185.35029999999998 84.39689999999995 186.6905 83.76719999999995 187.88569999999999 83.76719999999995 C 188.59619999999998 83.76719999999995 189.1452 83.96909999999994 189.53259999999997 84.37299999999995 C 189.92 84.77689999999994 190.11369999999997 85.33409999999995 190.11369999999997 86.04459999999995 C 190.11369999999997 86.59349999999995 189.97689999999997 87.25539999999995 189.70239999999995 88.03029999999994 C 189.42789999999997 88.80589999999994 188.98359999999997 89.71009999999994 188.37039999999996 90.74369999999993 C 187.88569999999996 91.58359999999993 187.31209999999996 92.47959999999993 186.65009999999995 93.43249999999993 C 185.98819999999995 94.38529999999993 185.25299999999996 95.37859999999993 184.44599999999994 96.41219999999993 z M 143.8477 110.4618 C 144.3638 110.0414 144.8649 109.6054 145.3495 109.1537 C 145.8334 108.7012 146.3023 108.233 146.7541 107.7483 C 148.7241 105.6811 149.7091 103.7919 149.7091 102.0799 C 149.7091 101.8219 149.6934 101.6768 149.6612 101.6438 C 149.56400000000002 101.6768 149.3621 101.8136 149.05540000000002 102.0559 C 148.74880000000002 102.2983 148.32100000000003 102.7911 147.77130000000002 103.5338 C 147.31950000000003 104.1471 146.84310000000002 104.8576 146.342 105.6654 C 145.8416 106.4731 145.3495 107.34450000000001 144.8649 108.28160000000001 C 144.7033 108.63690000000001 144.5335 109.00030000000001 144.3563 109.3713 C 144.1783 109.74300000000001 144.0085 110.10650000000001 143.8477 110.46180000000001 z M 167.3928 94.5222 C 168.0061 93.3921 168.5229 92.3263 168.9425 91.3249 C 169.3628 90.3241 169.6695 89.4521 169.8632 88.7086 C 169.5079 89.5164 169.0883 90.4692 168.6037 91.5672 C 168.119 92.6651 167.5865 93.8924 167.0047 95.2492 C 167.0697 95.1198 167.13400000000001 94.9986 167.19840000000002 94.8857 C 167.26340000000002 94.7727 167.32780000000002 94.6516 167.39280000000002 94.5222 z M 186.965 88.2247 C 185.9314 89.2905 184.817 90.6712 183.6226 92.3667 C 182.4274 94.06219999999999 181.2001 95.97609999999999 179.94060000000002 98.1077 C 180.42450000000002 97.55869999999999 180.91740000000001 96.99329999999999 181.41770000000002 96.4122 C 181.91880000000003 95.8303 182.39450000000002 95.2327 182.84700000000004 94.6194 C 183.88060000000004 93.2627 184.73620000000003 92.0518 185.41460000000004 90.986 C 186.09300000000005 89.9203 186.60980000000004 88.9996 186.96500000000003 88.2247 z M 171.365 118.4555 C 171.0419 118.2939 170.84 118.1077 170.75990000000002 117.8983 C 170.6792 117.6881 170.6388 117.5184 170.6388 117.3897 C 169.83100000000002 119.3597 169.104 121.3297 168.4586 123.2997 C 167.5215 126.0775 166.7952 128.5725 166.27839999999998 130.7849 C 165.7616 132.9972 165.50279999999998 134.8139 165.50279999999998 136.23489999999998 C 165.50279999999998 137.01049999999998 165.59179999999998 137.9312 165.76979999999998 138.99699999999999 C 165.94709999999998 140.06279999999998 166.24629999999996 141.07989999999998 166.66579999999996 142.04919999999998 C 167.50579999999997 143.922 168.57149999999996 144.8592 169.86319999999995 144.8592 C 170.54149999999996 144.8592 171.22809999999996 144.51139999999998 171.92219999999995 143.8173 C 172.61699999999993 143.1225 173.25419999999994 142.14569999999998 173.83609999999996 140.8862 C 174.48159999999996 139.5295 174.97439999999995 137.9873 175.31319999999997 136.2596 C 175.65279999999996 134.5319 175.82259999999997 132.7631 175.82259999999997 130.9547 C 175.82259999999997 129.4364 175.71709999999996 127.9996 175.50769999999997 126.6429 C 175.29749999999999 125.2862 174.96619999999996 124.0432 174.51449999999997 122.9123 C 173.77099999999996 120.8129 172.75389999999996 119.3433 171.46219999999997 118.50410000000001 C 171.43009999999995 118.50410000000001 171.39719999999997 118.4877 171.36499999999998 118.45550000000001 z" stroke-linecap="round" />
</g>
		<g transform="matrix(3.78 0 0 3.78 76.51 -46.14)"  >
<path style="stroke: rgb(83,52,24); stroke-opacity: 0.5; stroke-width: 0.0762; stroke-dasharray: none; stroke-linecap: butt; stroke-dashoffset: 0; stroke-linejoin: miter; stroke-miterlimit: 4; fill: rgb(44,87,132); fill-rule: evenodd; opacity: 1;" vector-effect="non-scaling-stroke"  transform=" translate(-122.26, -103.56)" d="M 144.671 89.4356 C 144.70329999999998 89.5971 144.7275 89.7828 144.7437 89.9927 C 144.75979999999998 90.2027 144.7679 90.4207 144.7679 90.6468 C 144.7679 92.843 143.8474 94.9586 142.00639999999999 96.9933 C 142.00639999999999 97.02560000000001 141.9903 97.04180000000001 141.958 97.04180000000001 C 141.7965 97.20320000000001 141.6269 97.30010000000001 141.4493 97.3324 C 141.2716 97.36470000000001 141.1505 97.38090000000001 141.08589999999998 97.38090000000001 C 140.73069999999998 97.38090000000001 140.43999999999997 97.26780000000001 140.21389999999997 97.04180000000001 C 139.98779999999996 96.8157 139.87479999999996 96.54110000000001 139.87479999999996 96.2181 C 139.87479999999996 95.9598 139.91519999999997 95.766 139.99589999999998 95.63680000000001 C 140.07659999999998 95.50760000000001 140.14929999999998 95.4107 140.21389999999997 95.3461 C 141.63499999999996 93.76350000000001 142.34559999999996 92.18090000000001 142.34559999999996 90.59830000000001 C 142.34559999999996 89.95240000000001 142.24059999999997 89.41140000000001 142.03069999999997 88.9753 C 141.82069999999996 88.5393 141.63499999999996 88.20830000000001 141.47349999999997 87.9822 C 141.24739999999997 87.65920000000001 141.02129999999997 87.43310000000001 140.79529999999997 87.30390000000001 C 140.56919999999997 87.17470000000002 140.40769999999998 87.1102 140.31079999999997 87.1102 C 139.08349999999996 87.1102 137.87229999999997 88.3536 136.67729999999997 90.84060000000001 C 136.06359999999998 92.16480000000001 135.49029999999996 93.69090000000001 134.95739999999998 95.4188 C 134.42449999999997 97.14670000000001 133.89969999999997 98.8989 133.38289999999998 100.67530000000001 C 133.2214 101.22430000000001 133.06799999999998 101.82190000000001 132.9227 102.46780000000001 C 132.7773 103.11380000000001 132.6239 103.79200000000002 132.4624 104.50260000000002 C 132.2363 105.43920000000001 132.0021 106.40810000000002 131.75990000000002 107.40940000000002 C 131.51770000000002 108.41060000000002 131.24320000000003 109.41990000000001 130.93630000000002 110.43730000000002 C 130.6295 111.45470000000002 130.28230000000002 112.46400000000003 129.89470000000003 113.46520000000002 C 129.50710000000004 114.46650000000002 129.07110000000003 115.41930000000002 128.58660000000003 116.32360000000003 C 128.03760000000003 117.35710000000003 127.44010000000003 118.26150000000003 126.79410000000003 119.03660000000002 C 126.14820000000003 119.81180000000002 125.45380000000003 120.47390000000001 124.71090000000002 121.02300000000002 C 122.96680000000002 122.28260000000003 120.96430000000002 122.91240000000002 118.70350000000002 122.91240000000002 C 116.66870000000002 122.91240000000002 114.90850000000002 122.42790000000002 113.42280000000002 121.45900000000002 C 112.03390000000002 120.58690000000001 111.00040000000003 119.40810000000002 110.32220000000002 117.92240000000001 C 108.90100000000002 118.40690000000001 107.54460000000002 118.6491 106.25260000000003 118.6491 L 105.47750000000003 118.6491 C 102.95820000000003 118.45530000000001 101.05260000000004 117.4218 99.76070000000003 115.5485 L 101.09300000000003 112.9323 C 101.41150000000003 112.3069 101.73900000000003 114.1435 102.20730000000003 114.628 C 102.67560000000003 115.1124 103.23280000000003 115.492 103.87870000000004 115.7665 C 104.52470000000004 116.041 105.23520000000003 116.19439999999999 106.01040000000003 116.2267 C 107.01160000000003 116.12979999999999 108.12590000000003 115.72609999999999 109.35320000000003 115.01549999999999 C 109.06250000000003 113.85279999999999 108.91720000000002 112.5932 108.91720000000002 111.23669999999998 C 108.91720000000002 109.36339999999998 109.15140000000002 107.57899999999998 109.61970000000002 105.88329999999999 C 110.08800000000002 104.18769999999999 110.79050000000002 102.66159999999999 111.72710000000002 101.3051 C 112.66380000000002 99.884 113.76190000000003 98.80199999999999 115.02150000000002 98.05919999999999 C 116.28110000000002 97.31629999999998 117.62150000000001 96.94489999999999 119.04260000000002 96.94489999999999 C 121.30340000000002 96.94489999999999 122.99910000000003 97.57469999999999 124.12950000000002 98.83429999999998 C 124.67860000000002 99.48029999999999 125.02580000000002 100.11809999999998 125.17110000000002 100.74799999999999 C 125.31650000000002 101.37769999999999 125.38910000000003 101.82189999999999 125.38910000000003 102.08019999999999 C 125.38910000000003 103.243 125.03390000000003 104.5268 124.32330000000003 105.9318 C 123.61280000000004 107.3367 122.66000000000003 108.7255 121.46500000000003 110.09819999999999 C 120.26990000000004 111.47089999999999 118.91340000000004 112.7709 117.39540000000004 113.9982 C 115.87740000000004 115.2255 114.29480000000004 116.2267 112.64760000000004 117.00189999999999 C 112.87370000000004 117.42179999999999 113.15630000000004 117.84159999999999 113.49540000000005 118.2615 C 113.83450000000005 118.6814 114.24640000000005 119.0528 114.73080000000004 119.3758 C 115.21530000000004 119.69879999999999 115.77240000000005 119.9652 116.40220000000005 120.1751 C 117.03210000000006 120.3851 117.76680000000005 120.4901 118.60660000000006 120.4901 L 118.65500000000006 120.4901 C 120.49600000000005 120.4901 122.12710000000006 118.9559 123.54820000000007 115.88759999999999 C 124.25870000000006 114.36959999999999 124.88850000000006 112.64169999999999 125.43760000000006 110.70379999999999 C 125.98670000000006 108.76589999999999 126.53570000000006 106.73109999999998 127.08480000000006 104.59949999999999 L 128.10220000000007 100.96589999999999 L 128.39280000000008 99.80319999999999 C 129.00650000000007 97.60699999999999 129.58790000000008 95.58829999999999 130.13690000000008 93.74739999999998 C 130.6860000000001 91.90639999999999 131.31580000000008 90.29149999999998 132.02640000000008 88.90269999999998 C 132.86610000000007 87.38469999999998 133.77050000000008 86.25419999999998 134.73940000000007 85.51139999999998 C 135.83750000000006 84.63939999999998 137.16170000000008 84.20329999999998 138.71210000000008 84.20329999999998 C 139.06730000000007 84.20329999999998 139.55180000000007 84.25989999999999 140.16550000000007 84.37289999999999 C 140.77910000000006 84.48589999999999 141.40890000000007 84.75239999999998 142.05490000000006 85.17229999999999 C 143.41140000000007 86.04429999999999 144.28350000000006 87.4493 144.67100000000005 89.38709999999999 L 144.67100000000005 89.4356 z M 114.4401 101.69269999999999 C 113.5035 102.82309999999998 112.7526 104.22809999999998 112.1874 105.90759999999999 C 111.6221 107.58699999999999 111.3395 109.33109999999999 111.3395 111.1398 C 111.3395 111.62429999999999 111.3557 112.07639999999999 111.388 112.49629999999999 C 111.42030000000001 112.91619999999999 111.4687 113.31989999999999 111.5334 113.7075 C 112.6315 112.9323 113.7135 112.03609999999999 114.7793 111.0187 C 115.8451 110.0013 116.8302 108.92739999999999 117.73450000000001 107.797 C 118.73580000000001 106.5697 119.519 105.4069 120.08420000000001 104.30879999999999 C 120.64940000000001 103.21069999999999 120.9321 102.32249999999999 120.9321 101.64419999999998 C 120.9321 101.48269999999998 120.90780000000001 101.27279999999999 120.85940000000001 101.01439999999998 C 120.8109 100.75599999999999 120.71400000000001 100.50569999999998 120.5687 100.26349999999998 C 120.4234 100.02119999999998 120.2215 99.81129999999997 119.96310000000001 99.63369999999998 C 119.70470000000002 99.45599999999997 119.38170000000001 99.36719999999998 118.9942 99.36719999999998 C 117.2501 99.36719999999998 115.7321 100.14239999999998 114.4401 101.69269999999999 z" stroke-linecap="round" />
</g>
</g>
</g>
</svg>