<?xml version="1.0" encoding="UTF-8"?>
<!DOCTYPE svg PUBLIC "-//W3C//DTD SVG 1.1//EN" "http://www.w3.org/Graphics/SVG/1.1/DTD/svg11.dtd">
<!-- Creator: CorelDRAW -->
<svg xmlns="http://www.w3.org/2000/svg" xml:space="preserve" width="210mm" height="297mm" style="shape-rendering:geometricPrecision; text-rendering:geometricPrecision; image-rendering:optimizeQuality; fill-rule:evenodd; clip-rule:evenodd"
viewBox="0 0 210 297"
 xmlns:xlink="http://www.w3.org/1999/xlink">
 <defs>
  <style type="text/css">
   <![CDATA[
    .str0 {stroke:#533418;stroke-width:0.0762;stroke-opacity:0.501961}
    .fil0 {fill:#533418;fill-opacity:0.501961}
   ]]>
  </style>
 </defs>
 <g id="Capa_x0020_1">
  <metadata id="CorelCorpID_0Corel-Layer"/>
  <path class="fil0" d="M90.6186 115.791c0.0646,0.0969 0.113,0.1937 0.1453,0.2906 0.0323,0.0969 0.0485,0.2261 0.0485,0.3876l0 0.0969c0,0.2261 -0.0485,0.4037 -0.1454,0.5329l-1.5987 2.4224c-0.7106,1.0335 -1.4292,2.0832 -2.1559,3.149 -0.7267,1.0659 -1.5099,2.1155 -2.3497,3.1491 -0.5813,0.6782 -1.2031,1.3645 -1.8652,2.059 -0.6621,0.6944 -1.3807,1.3322 -2.1559,1.9136 -1.8409,1.4211 -3.7465,2.1317 -5.7167,2.1317 -1.6795,0 -3.0683,-0.5976 -4.1664,-1.7926 -1.2273,-1.3888 -1.841,-3.3428 -1.841,-5.862 0,-1.9702 0.3876,-4.0211 1.1627,-6.1528 0.1149,-0.303 0.2331,-0.5997 0.3551,-0.8913l0.0014 -0.0005c-0.2946,0.0974 -0.6079,0.1859 -0.9379,0.262 -0.4198,0.0969 -0.8235,0.1776 -1.2111,0.2422 -0.3876,0.0646 -0.6621,0.1131 -0.8236,0.1454l-1.3565 0.2422 0 0.7752c0,2.0993 -0.5491,4.1987 -1.6472,6.2981 -0.4845,0.9689 -1.0739,1.9217 -1.7683,2.8583 -0.6945,0.9367 -1.4615,1.8248 -2.3013,2.6646 -1.6472,1.6472 -3.4236,2.9714 -5.3291,3.9727 -1.0013,0.5167 -1.9783,0.9124 -2.9311,1.1869 -0.9528,0.2745 -1.8652,0.4118 -2.7372,0.4118 -1.3242,0 -2.3497,-0.3553 -3.0764,-1.0658 -0.7267,-0.7106 -1.0901,-1.6957 -1.0901,-2.9553 0,-1.6472 0.5491,-3.3267 1.6473,-5.0385 0.4844,-0.7428 1.0577,-1.4695 1.7198,-2.1801 0.6621,-0.7105 1.413,-1.4049 2.2528,-2.0832 1.3565,-1.0981 2.8745,-2.1317 4.554,-3.1006 1.6795,-0.9689 3.4236,-1.8248 5.2323,-2.5677 -0.1615,-0.872 -0.428,-1.7441 -0.7994,-2.6161 -0.3714,-0.8721 -0.8155,-1.6795 -1.3323,-2.4224 -0.4522,-0.6459 -1.082,-1.308 -1.8894,-1.9863 -0.8075,-0.6782 -1.7764,-1.0658 -2.9068,-1.1627l-0.2907 0c-0.3553,0 -0.646,-0.1131 -0.8721,-0.3392 -0.2261,-0.226 -0.3391,-0.5167 -0.3391,-0.872 0,-0.3553 0.113,-0.6459 0.3391,-0.872 0.2261,-0.2261 0.5168,-0.3392 0.8721,-0.3392l0.3391 0c1.0335,0 2.0832,-0.2422 3.1491,-0.7267 1.0658,-0.4844 2.0509,-1.1465 2.9552,-1.9863 0.9689,-0.872 1.7118,-1.849 2.2286,-2.931 0.5167,-1.082 0.7751,-2.1398 0.7751,-3.1733 0,-1.0658 -0.2099,-1.9863 -0.6298,-2.7615 -0.4199,-0.7751 -0.9689,-1.413 -1.6472,-1.9136 -0.6782,-0.5006 -1.4615,-0.8721 -2.3497,-1.1143 -0.8882,-0.2422 -1.7844,-0.3634 -2.6888,-0.3634 -1.2273,0 -2.6161,0.3149 -4.1664,0.9447 -1.5503,0.6299 -2.9875,1.4615 -4.3118,2.4951 -0.4521,0.3553 -0.9528,0.7994 -1.5018,1.3323 -0.5491,0.5329 -1.0659,1.1465 -1.5503,1.8409 -0.4845,0.6945 -0.8882,1.4696 -1.2112,2.3255 -0.323,0.8559 -0.4845,1.7683 -0.4845,2.7373 0,0.0645 0.0162,0.1292 0.0485,0.1937l0.0969 0c0.5168,0 0.9528,0.1858 1.3081,0.5572 0.3552,0.3714 0.5329,0.8155 0.5329,1.3323 0,0.549 -0.1858,0.9931 -0.5572,1.3322 -0.3714,0.3392 -0.8639,0.5087 -1.4776,0.5087 0,0 -0.0323,-0.0161 -0.0969,-0.0484 -0.872,-0.0969 -1.4857,-0.6137 -1.841,-1.5503 -0.1615,-0.3876 -0.2745,-0.7913 -0.3391,-1.2112 -0.0646,-0.4198 -0.0969,-0.7913 -0.0969,-1.1142 0,-2.0348 0.5329,-3.9323 1.5987,-5.6926 1.0659,-1.7602 2.4466,-3.2782 4.1422,-4.554 1.6957,-1.2757 3.577,-2.2851 5.6441,-3.0279 2.0671,-0.7429 4.118,-1.1143 6.1528,-1.1143 1.518,0 2.931,0.2019 4.2391,0.6056 1.308,0.4037 2.4466,0.977 3.4155,1.7199 1.0012,0.8074 1.7683,1.7602 2.3012,2.8583 0.5329,1.0982 0.7994,2.277 0.7994,3.5367 0,1.4857 -0.4037,2.9229 -1.2112,4.3117 -0.7751,1.2274 -1.8087,2.3416 -3.1006,3.3429 -1.518,1.195 -3.2459,2.1316 -5.1838,2.8099 0.646,0.3553 1.3161,0.7671 2.0105,1.2354 0.6945,0.4683 1.3566,1.0174 1.9864,1.6472 0.6298,0.6298 1.2031,1.3323 1.7198,2.1074 0.5168,0.7752 0.9205,1.6149 1.2112,2.5193 0.3553,-0.0646 0.8155,-0.1535 1.3807,-0.2665 0.5652,-0.113 1.1466,-0.2261 1.7441,-0.3391 0.5975,-0.1131 1.1708,-0.21 1.7199,-0.2907 0.4669,-0.0686 0.8661,-0.1027 1.2034,-0.1079 0.381,-0.6747 0.7997,-1.336 1.2674,-1.9995 1.1769,-1.6696 2.4869,-3.0199 3.9726,-4.0211 1.5503,-1.0659 3.0683,-1.5988 4.554,-1.5988 1.9056,0 2.8584,0.9366 2.8584,2.8099 0,1.3242 -0.3391,2.6646 -1.0174,4.0211 -0.2907,0.5491 -0.6378,1.1224 -1.0416,1.7199 -0.4037,0.5975 -0.8801,1.1869 -1.4292,1.7683 -1.0335,1.1304 -2.1397,2.164 -3.3186,3.1006 -1.1789,0.9367 -2.2366,1.728 -3.1733,2.3739 -0.4521,1.518 -0.6782,2.8099 -0.6782,3.8758 0,0.549 0.0565,0.9931 0.1696,1.3322 0.113,0.3392 0.2583,0.5976 0.436,0.7752 0.1776,0.1776 0.3795,0.2907 0.6056,0.3391 0.2261,0.0485 0.4683,0.0727 0.7267,0.0727 0.3229,0 0.7105,-0.0646 1.1627,-0.1938 0.4522,-0.1292 0.9689,-0.3795 1.5503,-0.7509 0.5813,-0.3715 1.2354,-0.8721 1.9621,-1.5019 0.7267,-0.6298 1.5261,-1.4615 2.3981,-2.495 0.6137,-0.7429 1.2112,-1.5019 1.7926,-2.277 0.5813,-0.7752 1.1304,-1.5422 1.6471,-2.3012 0.5168,-0.759 0.9932,-1.4777 1.4292,-2.1559 0.4361,-0.6783 0.8317,-1.2758 1.187,-1.7925 0,-0.0323 0.0323,-0.0808 0.0969,-0.1454 0.2583,-0.2584 0.5652,-0.3876 0.9205,-0.3876l0.0968 0c0.4199,0 0.7106,0.1777 0.8721,0.533zm-43.0209 16.9079c0.0646,0.4845 0.1858,0.7671 0.3634,0.8479 0.1776,0.0807 0.3149,0.1211 0.4118,0.1211 0.4522,0 1.0174,-0.1696 1.6956,-0.5087 0.6783,-0.3392 1.3808,-0.759 2.1075,-1.2596 0.7267,-0.5007 1.4453,-1.0417 2.1558,-1.623 0.7106,-0.5814 1.3081,-1.1304 1.7926,-1.6472 2.7453,-2.7776 4.2633,-5.7006 4.554,-8.7689 -1.5503,0.6783 -3.0602,1.4615 -4.5298,2.3497 -1.4695,0.8882 -2.8664,1.8652 -4.1906,2.931 -1.6472,1.3242 -2.7938,2.6404 -3.4398,3.9484 -0.6459,1.3081 -0.9689,2.382 -0.9689,3.2217 0,0 0.0161,0.0323 0.0484,0.0969l0 0.2907zm28.2931 -14.1465c0.5167,-0.4198 1.0173,-0.8559 1.5018,-1.308 0.4845,-0.4522 0.9528,-0.9205 1.4049,-1.405 1.9702,-2.0671 2.9553,-3.9565 2.9553,-5.6683 0,-0.2584 -0.0161,-0.4037 -0.0484,-0.436 -0.0969,0.0323 -0.2988,0.1695 -0.6056,0.4118 -0.3068,0.2422 -0.7348,0.7348 -1.2839,1.4776 -0.4521,0.6137 -0.9285,1.3242 -1.4291,2.1317 -0.5007,0.8074 -0.9932,1.6795 -1.4777,2.6161 -0.1615,0.3553 -0.331,0.7186 -0.5087,1.0901 -0.1776,0.3714 -0.3472,0.7348 -0.5086,1.09z"/>
  <path class="fil0" d="M50.9406 109.687c-0.7106,2.3254 -1.5019,4.7235 -2.3739,7.1943 -0.8721,2.4708 -1.9217,4.772 -3.1491,6.9037 -1.3888,2.3254 -2.9229,4.118 -4.6024,5.3776 -2.0025,1.4534 -4.1988,2.1801 -6.5888,2.1801 -1.8733,0 -3.6174,-0.5006 -5.2323,-1.5018 -0.7428,-0.4522 -1.3969,-0.969 -1.9621,-1.5503 -0.5652,-0.5814 -1.0254,-1.2274 -1.3807,-1.9379 -1.4211,0.4845 -2.7453,0.7267 -3.9727,0.7267 -0.9689,0 -1.9459,-0.1938 -2.931,-0.5814 -0.9851,-0.3876 -1.8813,-0.9043 -2.6888,-1.5503 -0.9366,-0.7751 -1.6472,-1.6875 -2.1317,-2.7372l2.2528 -1.0659c0.6597,-0.312 0.7025,1.2354 1.187,1.7199 0.4844,0.4845 1.0174,0.8721 1.5987,1.1627 0.5814,0.2907 1.1466,0.436 1.6957,0.436 1.0981,0 2.4062,-0.3552 3.9242,-1.0658 -0.4845,-1.4534 -0.7267,-3.0844 -0.7267,-4.8931 0,-1.8733 0.2341,-3.6093 0.7024,-5.208 0.4684,-1.5988 1.1143,-2.9876 1.9379,-4.1665 0.8236,-1.1789 1.7925,-2.0994 2.9068,-2.7615 1.1143,-0.6621 2.3336,-0.9931 3.6578,-0.9931 2.5192,0 4.3602,0.6944 5.5229,2.0832 0.5491,0.6459 0.8882,1.2919 1.0174,1.9379 0.1292,0.6459 0.1938,1.1627 0.1938,1.5503 0,1.2596 -0.3714,2.6161 -1.1143,4.0695 -0.3553,0.6783 -0.7751,1.3727 -1.2596,2.0832 -0.4845,0.7106 -1.0174,1.405 -1.5988,2.0832 -1.1304,1.2919 -2.3658,2.4627 -3.7061,3.5124 -1.3404,1.0497 -2.7211,1.9298 -4.1423,2.6404 0.2261,0.3876 0.5087,0.7913 0.8479,1.2112 0.3391,0.4199 0.759,0.8074 1.2596,1.1627 0.5006,0.3553 1.0901,0.6459 1.7683,0.872 0.6782,0.2261 1.4534,0.3392 2.3254,0.3392 1.3889,0 2.6969,-0.6298 3.9243,-1.8895 1.0335,-0.9689 2.0186,-2.4062 2.9552,-4.3117 1.1627,-2.4224 2.1478,-4.9012 2.9553,-7.4366 0.8074,-2.5354 1.5503,-4.9659 2.2285,-7.2913 0.6137,-2.1317 1.1951,-4.0857 1.7441,-5.8621 0.5491,-1.7764 1.195,-3.3428 1.9379,-4.6993 0.7428,-1.518 1.631,-2.6646 2.6646,-3.4397 1.0981,-0.9044 2.3739,-1.3566 3.8273,-1.3566 1.0012,0 2.0024,0.2584 3.0037,0.7752 0.4199,0.2261 0.6298,0.5975 0.6298,1.1143 0,0.3229 -0.105,0.6056 -0.3149,0.8478 -0.2099,0.2422 -0.4925,0.3633 -0.8478,0.3633 -0.2261,0 -0.4684,-0.0646 -0.7267,-0.1937l-0.1454 0c-1.0658,0 -2.1639,1.1627 -3.2944,3.4881 -0.5813,1.2273 -1.1465,2.6323 -1.6956,4.2149 -0.5491,1.5826 -1.0981,3.2944 -1.6472,5.1354l-0.436 1.3081zm-16.1328 -1.1628c-0.3876,-0.4844 -0.9528,-0.7267 -1.6957,-0.7267 -1.6795,0 -3.1167,0.759 -4.3118,2.277 -0.8074,1.0336 -1.4372,2.2932 -1.8894,3.7789 -0.4522,1.4857 -0.6783,3.0521 -0.6783,4.6993 0,1.1951 0.1454,2.3739 0.4361,3.5367 1.0335,-0.7429 2.0509,-1.615 3.0521,-2.6162 1.0013,-1.0012 1.9217,-2.0509 2.7615,-3.149 0.9044,-1.2273 1.5987,-2.3739 2.0832,-3.4398 0.4845,-1.0658 0.7267,-1.954 0.7267,-2.6645 0,-0.646 -0.1615,-1.2112 -0.4844,-1.6957z"/>
  <path class="fil0" d="M184.446 96.4122c-0.7434,0.9364 -1.4943,1.8406 -2.2527,2.7127 -0.7591,0.872 -1.4943,1.6798 -2.2048,2.4225 -0.7106,0.7426 -1.3807,1.4046 -2.0104,1.9864 -0.6298,0.5812 -1.187,1.0336 -1.6716,1.356 -1.0007,2.0029 -1.9536,3.9812 -2.8578,5.9355 -0.905,1.9535 -1.7441,3.8831 -2.5197,5.7888 0.1294,-0.1286 0.2827,-0.2423 0.4607,-0.3388 0.1772,-0.0972 0.347,-0.1458 0.5086,-0.1458 0.1615,0 0.2744,0.0164 0.3388,0.0486 1.0336,-0.0643 2.0837,-0.3792 3.1494,-0.9446 1.0658,-0.5655 2.0912,-1.276 3.0762,-2.1316 0.985,-0.8556 1.9296,-1.7763 2.8339,-2.7613 0.9042,-0.985 1.7284,-1.9461 2.4711,-2.8825l0.0486 -0.0486c0.0643,-0.065 0.1615,-0.1458 0.2902,-0.2423 0.1294,-0.0972 0.3231,-0.1451 0.5819,-0.1451 0.3223,0 0.5968,0.1129 0.8234,0.3388 0.2259,0.2259 0.3388,0.5004 0.3388,0.8235 0,0.3231 -0.1129,0.5976 -0.3388,0.8234 -0.8399,1.0015 -1.7037,1.9947 -2.5923,2.9797 -0.8877,0.985 -1.8488,1.9296 -2.8824,2.8346 -1.8735,1.5826 -3.6977,2.6641 -5.4748,3.2452 1.0015,1.163 1.825,2.6648 2.4712,4.5062 0.3874,1.2273 0.6865,2.5594 0.896,3.9969 0.2101,1.4367 0.3148,2.9311 0.3148,4.4807 0,2.1967 -0.2019,4.2639 -0.605,6.2018 -0.4039,1.9378 -0.9933,3.6655 -1.7689,5.1838 -0.807,1.6147 -1.8249,2.8907 -3.0522,3.827 -1.2917,1.0015 -2.7449,1.5019 -4.3596,1.5019 -2.6162,0 -4.667,-1.0823 -6.1531,-3.246 -0.7105,-0.9685 -1.243,-2.1398 -1.5983,-3.5122 -0.356,-1.3724 -0.5333,-2.8825 -0.5333,-4.5301 0,-1.7113 0.2663,-3.7703 0.7996,-6.1771 0.5325,-2.406 1.3163,-5.1105 2.3492,-8.1149 0.3664,-1.0725 0.7569,-2.1592 1.1719,-3.2616l-0.3724 0.3792c-0.9529,0.9528 -1.9783,1.801 -3.0762,2.5436 -1.0979,0.7106 -2.1637,1.0658 -3.1973,1.0658 -1.3246,0 -2.3253,-0.4682 -3.0037,-1.4046 -0.6783,-0.8077 -1.0179,-2.0029 -1.0179,-3.5855 0,-0.6551 0.0456,-1.3425 0.1361,-2.0627 -0.4614,0.629 -0.9423,1.252 -1.4442,1.869 -0.5811,0.6784 -1.2026,1.365 -1.8645,2.059 -0.6627,0.6948 -1.3814,1.3321 -2.1563,1.9139 -1.8406,1.4211 -3.7463,2.1316 -5.717,2.1316 -1.6791,0 -3.068,-0.5976 -4.1659,-1.7927 -1.2274,-1.3889 -1.8414,-3.3425 -1.8414,-5.8622 0,-1.97 0.3874,-4.0208 1.163,-6.1524 0.3553,-0.9371 0.7666,-1.8653 1.2356,-2.7859 0.4682,-0.9207 1.0089,-1.8003 1.6229,-2.6402 1.1623,-1.6798 2.4869,-3.0201 3.9722,-4.0215 1.5505,-1.0658 3.0687,-1.5983 4.5541,-1.5983 1.9057,0 2.8585,0.9364 2.8585,2.8099 0,1.3238 -0.3388,2.6648 -1.0171,4.0208 -0.291,0.549 -0.638,1.1226 -1.0419,1.7202 -0.4039,0.5976 -0.8803,1.1869 -1.4293,1.7681 -1.0336,1.1308 -2.1397,2.1637 -3.3185,3.1008 -1.1787,0.9364 -2.237,1.7277 -3.1734,2.3739 -0.4517,1.5175 -0.6783,2.8099 -0.6783,3.8757 0,0.549 0.0568,0.9932 0.1697,1.332 0.113,0.3396 0.2581,0.5976 0.4361,0.7756 0.1772,0.1773 0.3792,0.2902 0.6058,0.3388 0.2259,0.0486 0.4682,0.0726 0.7262,0.0726 0.3231,0 0.7105,-0.0643 1.163,-0.1937 0.4525,-0.1294 0.9686,-0.3792 1.5505,-0.7509 0.5811,-0.3717 1.2355,-0.8721 1.9617,-1.5018 0.727,-0.6298 1.5265,-1.4615 2.3986,-2.4951 0.6133,-0.7427 1.2109,-1.5018 1.792,-2.2767 0.5819,-0.7755 1.1309,-1.5422 1.6477,-2.3013 0.5168,-0.7591 0.9932,-1.4779 1.4292,-2.1562l0.3134 -0.4839c0.2423,-0.7076 0.5011,-1.4263 0.7764,-2.1563 0.5168,-1.3724 1.05,-2.7373 1.599,-4.0941l0.3388 -0.7748c0.1937,-0.5168 0.4525,-1.163 0.7748,-1.9378 0.3231,-0.7756 0.6784,-1.6148 1.0666,-2.519 0.3874,-0.905 0.807,-1.8496 1.2595,-2.8346 0.4517,-0.985 0.9363,-1.9618 1.4532,-2.9311 1.3567,-2.5833 2.6079,-4.489 3.7545,-5.7163 1.1465,-1.2274 2.2527,-1.8414 3.3185,-1.8414 0.8399,0 1.5018,0.3231 1.9865,0.9693 0.3874,0.549 0.5811,1.243 0.5811,2.0829 0,0.7106 -0.1369,1.5183 -0.4114,2.4225 -0.2745,0.9043 -0.6058,1.8003 -0.9932,2.6888 -0.3874,0.8878 -0.7831,1.7195 -1.1869,2.495 -0.4039,0.7749 -0.7352,1.4046 -0.9933,1.8893 -1.0014,1.7763 -2.0425,3.4157 -3.1248,4.9175 -1.0822,1.5018 -2.0425,2.6566 -2.8824,3.4636 -0.549,1.3567 -1.0905,2.7217 -1.623,4.0941 -0.5333,1.3724 -1.0097,2.6805 -1.4293,3.9243 -0.4196,1.2431 -0.7673,2.3739 -1.0418,3.3911 -0.2745,1.0171 -0.4114,1.8331 -0.4114,2.4464 0,0.3231 0.024,0.5572 0.0726,0.703 0.0486,0.1451 0.089,0.2499 0.1211,0.3149 0.0322,0.0322 0.0644,0.0479 0.0965,0.0479 0.291,0 0.6627,-0.1451 1.1144,-0.436l0 -0.0479c1.9379,-1.2924 3.5773,-2.875 4.9176,-4.7478 1.3283,-1.8563 2.664,-3.9019 4.008,-6.1389 0.5916,-1.2542 1.2019,-2.5025 1.8294,-3.7448 1.5183,-2.9715 3.0201,-5.6924 4.5055,-8.1635 1.4861,-2.4703 2.9557,-4.6423 4.4089,-6.5158 1.4862,-1.97 2.9072,-3.504 4.2632,-4.6027 1.4861,-1.2595 2.8263,-1.8892 4.0215,-1.8892 0.7105,0 1.2595,0.2019 1.6469,0.6058 0.3874,0.4039 0.5811,0.9611 0.5811,1.6716 0,0.5489 -0.1368,1.2108 -0.4113,1.9857 -0.2745,0.7756 -0.7188,1.6798 -1.332,2.7134 -0.4847,0.8399 -1.0583,1.7359 -1.7203,2.6888 -0.6619,0.9528 -1.3971,1.9461 -2.2041,2.9797zm-40.5983 14.0496c0.5161,-0.4204 1.0172,-0.8564 1.5018,-1.3081 0.4839,-0.4525 0.9528,-0.9207 1.4046,-1.4054 1.97,-2.0672 2.955,-3.9564 2.955,-5.6684 0,-0.258 -0.0157,-0.4031 -0.0479,-0.4361 -0.0972,0.033 -0.2991,0.1698 -0.6058,0.4121 -0.3066,0.2424 -0.7344,0.7352 -1.2841,1.4779 -0.4518,0.6133 -0.9282,1.3238 -1.4293,2.1316 -0.5004,0.8077 -0.9925,1.6791 -1.4771,2.6162 -0.1616,0.3553 -0.3314,0.7187 -0.5086,1.0897 -0.178,0.3717 -0.3478,0.7352 -0.5086,1.0905zm23.5451 -15.9396c0.6133,-1.1301 1.1301,-2.1959 1.5497,-3.1973 0.4203,-1.0008 0.727,-1.8728 0.9207,-2.6163 -0.3553,0.8078 -0.7749,1.7606 -1.2595,2.8586 -0.4847,1.0979 -1.0172,2.3252 -1.599,3.682 0.065,-0.1294 0.1293,-0.2506 0.1937,-0.3635 0.065,-0.113 0.1294,-0.2341 0.1944,-0.3635zm19.5722 -6.2975c-1.0336,1.0658 -2.148,2.4465 -3.3424,4.142 -1.1952,1.6955 -2.4225,3.6094 -3.682,5.741 0.4839,-0.549 0.9768,-1.1144 1.4771,-1.6955 0.5011,-0.5819 0.9768,-1.1795 1.4293,-1.7928 1.0336,-1.3567 1.8892,-2.5676 2.5676,-3.6334 0.6784,-1.0657 1.1952,-1.9864 1.5504,-2.7613zm-15.6 30.2308c-0.3231,-0.1616 -0.525,-0.3478 -0.6051,-0.5572 -0.0807,-0.2102 -0.1211,-0.3799 -0.1211,-0.5086 -0.8078,1.97 -1.5348,3.94 -2.1802,5.91 -0.9371,2.7778 -1.6634,5.2728 -2.1802,7.4852 -0.5168,2.2123 -0.7756,4.029 -0.7756,5.45 0,0.7756 0.089,1.6963 0.267,2.7621 0.1773,1.0658 0.4765,2.0829 0.896,3.0522 0.84,1.8728 1.9057,2.81 3.1974,2.81 0.6783,0 1.3649,-0.3478 2.059,-1.0419 0.6948,-0.6948 1.332,-1.6716 1.9139,-2.9311 0.6455,-1.3567 1.1383,-2.8989 1.4771,-4.6266 0.3396,-1.7277 0.5094,-3.4965 0.5094,-5.3049 0,-1.5183 -0.1055,-2.9551 -0.3149,-4.3118 -0.2102,-1.3567 -0.5415,-2.5997 -0.9932,-3.7306 -0.7435,-2.0994 -1.7606,-3.569 -3.0523,-4.4082 -0.0321,0 -0.065,-0.0164 -0.0972,-0.0486z"/>
  <path class="fil0 str0" d="M144.671 89.4356c0.0323,0.1615 0.0565,0.3472 0.0727,0.5571 0.0161,0.21 0.0242,0.428 0.0242,0.6541 0,2.1962 -0.9205,4.3118 -2.7615,6.3465 0,0.0323 -0.0161,0.0485 -0.0484,0.0485 -0.1615,0.1614 -0.3311,0.2583 -0.5087,0.2906 -0.1777,0.0323 -0.2988,0.0485 -0.3634,0.0485 -0.3552,0 -0.6459,-0.1131 -0.872,-0.3391 -0.2261,-0.2261 -0.3391,-0.5007 -0.3391,-0.8237 0,-0.2583 0.0404,-0.4521 0.1211,-0.5813 0.0807,-0.1292 0.1534,-0.2261 0.218,-0.2907 1.4211,-1.5826 2.1317,-3.1652 2.1317,-4.7478 0,-0.6459 -0.105,-1.1869 -0.3149,-1.623 -0.21,-0.436 -0.3957,-0.767 -0.5572,-0.9931 -0.2261,-0.323 -0.4522,-0.5491 -0.6782,-0.6783 -0.2261,-0.1292 -0.3876,-0.1937 -0.4845,-0.1937 -1.2273,0 -2.4385,1.2434 -3.6335,3.7304 -0.6137,1.3242 -1.187,2.8503 -1.7199,4.5782 -0.5329,1.7279 -1.0577,3.4801 -1.5745,5.2565 -0.1615,0.549 -0.3149,1.1466 -0.4602,1.7925 -0.1454,0.646 -0.2988,1.3242 -0.4603,2.0348 -0.2261,0.9366 -0.4603,1.9055 -0.7025,2.9068 -0.2422,1.0012 -0.5167,2.0105 -0.8236,3.0279 -0.3068,1.0174 -0.654,2.0267 -1.0416,3.0279 -0.3876,1.0013 -0.8236,1.9541 -1.3081,2.8584 -0.549,1.0335 -1.1465,1.9379 -1.7925,2.713 -0.6459,0.7752 -1.3403,1.4373 -2.0832,1.9864 -1.7441,1.2596 -3.7466,1.8894 -6.0074,1.8894 -2.0348,0 -3.795,-0.4845 -5.2807,-1.4534 -1.3889,-0.8721 -2.4224,-2.0509 -3.1006,-3.5366 -1.4212,0.4845 -2.7776,0.7267 -4.0696,0.7267l-0.7751 0c-2.5193,-0.1938 -4.4249,-1.2273 -5.7168,-3.1006l1.3323 -2.6162c0.3185,-0.6254 0.646,1.2112 1.1143,1.6957 0.4683,0.4844 1.0255,0.864 1.6714,1.1385 0.646,0.2745 1.3565,0.4279 2.1317,0.4602 1.0012,-0.0969 2.1155,-0.5006 3.3428,-1.2112 -0.2907,-1.1627 -0.436,-2.4223 -0.436,-3.7788 0,-1.8733 0.2342,-3.6577 0.7025,-5.3534 0.4683,-1.6956 1.1708,-3.2217 2.1074,-4.5782 0.9367,-1.4211 2.0348,-2.5031 3.2944,-3.2459 1.2596,-0.7429 2.6,-1.1143 4.0211,-1.1143 2.2608,0 3.9565,0.6298 5.0869,1.8894 0.5491,0.646 0.8963,1.2838 1.0416,1.9137 0.1454,0.6297 0.218,1.0739 0.218,1.3322 0,1.1628 -0.3552,2.4466 -1.0658,3.8516 -0.7105,1.4049 -1.6633,2.7937 -2.8583,4.1664 -1.1951,1.3727 -2.5516,2.6727 -4.0696,3.9 -1.518,1.2273 -3.1006,2.2285 -4.7478,3.0037 0.2261,0.4199 0.5087,0.8397 0.8478,1.2596 0.3391,0.4199 0.751,0.7913 1.2354,1.1143 0.4845,0.323 1.0416,0.5894 1.6714,0.7993 0.6299,0.21 1.3646,0.315 2.2044,0.315l0.0484 0c1.841,0 3.4721,-1.5342 4.8932,-4.6025 0.7105,-1.518 1.3403,-3.2459 1.8894,-5.1838 0.5491,-1.9379 1.0981,-3.9727 1.6472,-6.1043l1.0174 -3.6336 0.2906 -1.1627c0.6137,-2.1962 1.1951,-4.2149 1.7441,-6.0558 0.5491,-1.841 1.1789,-3.4559 1.8895,-4.8447 0.8397,-1.518 1.7441,-2.6485 2.713,-3.3913 1.0981,-0.872 2.4223,-1.3081 3.9727,-1.3081 0.3552,0 0.8397,0.0566 1.4534,0.1696 0.6136,0.113 1.2434,0.3795 1.8894,0.7994 1.3565,0.872 2.2286,2.277 2.6161,4.2148l0 0.0485zm-30.2309 12.2571c-0.9366,1.1304 -1.6875,2.5354 -2.2527,4.2149 -0.5653,1.6794 -0.8479,3.4235 -0.8479,5.2322 0,0.4845 0.0162,0.9366 0.0485,1.3565 0.0323,0.4199 0.0807,0.8236 0.1454,1.2112 1.0981,-0.7752 2.1801,-1.6714 3.2459,-2.6888 1.0658,-1.0174 2.0509,-2.0913 2.9552,-3.2217 1.0013,-1.2273 1.7845,-2.3901 2.3497,-3.4882 0.5652,-1.0981 0.8479,-1.9863 0.8479,-2.6646 0,-0.1615 -0.0243,-0.3714 -0.0727,-0.6298 -0.0485,-0.2584 -0.1454,-0.5087 -0.2907,-0.7509 -0.1453,-0.2423 -0.3472,-0.4522 -0.6056,-0.6298 -0.2584,-0.1777 -0.5814,-0.2665 -0.9689,-0.2665 -1.7441,0 -3.2621,0.7752 -4.5541,2.3255z"/>
 </g>
</svg>
