<?xml version="1.0" encoding="UTF-8"?>
<!DOCTYPE svg PUBLIC "-//W3C//DTD SVG 1.1//EN" "http://www.w3.org/Graphics/SVG/1.1/DTD/svg11.dtd">
<!-- Creator: CorelDRAW -->
<svg xmlns="http://www.w3.org/2000/svg" xml:space="preserve" width="210mm" height="297mm" style="shape-rendering:geometricPrecision; text-rendering:geometricPrecision; image-rendering:optimizeQuality; fill-rule:evenodd; clip-rule:evenodd"
viewBox="0 0 210 297"
 xmlns:xlink="http://www.w3.org/1999/xlink">
 <defs>
  <style type="text/css">
   <![CDATA[
    .str2 {stroke:#533418;stroke-width:0.0762;stroke-opacity:0.501961}
    .str0 {stroke:#373435;stroke-width:0.2;stroke-opacity:0.501961}
    .str1 {stroke:#5CC6D0;stroke-width:0.2;stroke-opacity:0.501961}
    .fil4 {fill:#A9998B}
    .fil5 {fill:#A9998B;fill-rule:nonzero}
    .fil0 {fill:#00A390;fill-opacity:0.501961}
    .fil2 {fill:#111111;fill-opacity:0.501961}
    .fil3 {fill:#533418;fill-opacity:0.501961}
    .fil1 {fill:#FC6998;fill-opacity:0.501961}
   ]]>
  </style>
 </defs>
 <g id="Capa_x0020_1">
  <metadata id="CorelCorpID_0Corel-Layer"/>
  <g id="_346685152">
   <g>
    <path id="_201972464" class="fil0 str0" d="M44.0996 184.295c17.495,-5.9543 20.3697,-25.932 0.8655,-38.1262 -1.717,8.5641 -1.7691,15.2139 -1.4863,21.4781 -3.4954,13.5767 0.7557,10.7056 0.6208,16.6481z"/>
    <path id="_201972320" class="fil0 str1" d="M123.833 149.229c2.5209,-27.7058 15.8203,-30.4185 26.4574,-32.0305 -2.114,3.7809 -4.7821,12.5533 -8.4474,17.2151 -8.7192,3.6911 -8.9189,9.6279 -18.01,14.8154z"/>
    <path id="_201972248" class="fil0 str0" d="M53.7212 48.0822c2.9228,-6.088 2.5005,-12.4936 0.1715,-19.7198 -0.7889,-4.6796 -2.9751,-9.2116 -5.9505,-14.0212 -7.7756,14.029 -6.2328,21.0012 -2.5642,25.6994 1.562,5.1053 4.943,6.8466 8.3432,8.0416z"/>
    <path id="_201972176" class="fil0 str0" d="M68.384 64.8441c6.3359,-1.4891 11.614,-3.3877 17.9912,-7.5076 4.316,-1.9732 6.8796,-6.7994 10.7553,-10.9183 -13.4874,-0.3254 -16.4833,-0.3597 -20.0719,4.3999 -6.3991,4.1147 -8.4004,10.4323 -8.6746,14.026z"/>
    <path id="_201972104" class="fil0 str0" d="M37.1957 114.902c-4.0784,5.6428 -10.9306,4.4277 -16.1304,0.0842 6.0008,-2.2672 14.0636,-1.4791 16.1304,-0.0842z"/>
    <path id="_201972032" class="fil0 str0" d="M35.8118 106.369c-6.7212,1.3115 -3.6629,1.5647 -8.8628,-2.7788 4.9582,0.0308 6.796,1.3839 8.8628,2.7788z"/>
    <path id="_201972008" class="fil0 str0" d="M90.1405 81.5137c-6.5711,-1.1057 -7.4923,-2.4932 -8.9735,-9.1046 4.5756,2.7859 7.4357,5.4754 8.9735,9.1046z"/>
    <path id="_201971912" class="fil1" d="M93.2962 136.625c0.5002,-0.4089 0.0486,-1.0608 1.6219,-1.6699 1.4034,-0.5434 3.5083,0.9822 4.3434,2.2028 1.0752,1.5715 0.0124,1.9138 0.2327,3.6025 0.1811,0.1125 0.2898,1.0086 0.3661,1.2374 0.9805,0.3268 -0.0789,2.301 -0.6839,3.1623 -0.7135,1.0157 -3.0921,0.9207 -4.4058,0.7891 -2.7715,-0.2775 -0.1883,2.3666 -2.1227,0.6861 -0.4636,-0.4029 -0.7859,-2.9896 -1.8905,-3.9833 -0.8156,-0.7338 -1.7501,-2.8728 -0.6914,-3.8239 1.9498,-1.7518 1.5368,-0.8192 3.2302,-2.2031z"/>
    <path id="_201971816" class="fil1" d="M19.6606 78.6635c0.3925,-0.5123 1.1172,-1.2755 2.6533,-1.2063 0.6252,0.0281 1.4458,0.6709 2.8905,0.6301 2.2073,-0.1535 3.7059,1.6415 4.3157,2.2519 1.8036,1.806 1.1363,10.6734 0.0985,12.6638 -0.7132,1.0153 -5.5832,5.9042 -6.9017,5.9645 -3.1893,0.1461 -5.4479,-2.5378 -5.83,-5.8109 -2.6611,-0.9064 -3.312,-3.4423 -3.6156,-6.2955 -0.1958,-1.8401 1.6895,-3.956 2.0614,-5.3291 0.602,-2.2214 2.6575,-1.1452 4.3279,-2.8685z"/>
    <path id="_201971720" class="fil1" d="M97.3392 84.7601c-1.2699,-0.7248 -2.243,-3.1993 -2.4902,-6.6693 2.037,-1.1152 5.547,-0.812 6.7717,0.1229 1.0465,1.1824 0.5877,3.1727 0.0924,4.1717 -1.5222,1.3972 -3.283,3.0881 -4.3739,2.3747z"/>
    <path id="_201971576" class="fil2" d="M38.5835 108.241c-0.0001,-0.0429 -0.0639,0.1294 -0.0884,0.094l0.0884 -0.094z"/>
    <path id="_201971432" class="fil3" d="M97.7102 207.669c0.0646,0.0969 0.113,0.1937 0.1453,0.2906 0.0323,0.0969 0.0485,0.2261 0.0485,0.3876l0 0.0969c0,0.2261 -0.0485,0.4037 -0.1454,0.5329l-1.5987 2.4224c-0.7106,1.0335 -1.4292,2.0832 -2.1559,3.149 -0.7267,1.0659 -1.5099,2.1155 -2.3497,3.1491 -0.5813,0.6782 -1.2031,1.3645 -1.8652,2.059 -0.6621,0.6944 -1.3807,1.3322 -2.1559,1.9136 -1.8409,1.4211 -3.7465,2.1317 -5.7167,2.1317 -1.6795,0 -3.0683,-0.5976 -4.1664,-1.7926 -1.2273,-1.3888 -1.841,-3.3428 -1.841,-5.862 0,-1.9702 0.3876,-4.0211 1.1627,-6.1528 0.1149,-0.303 0.2331,-0.5997 0.3551,-0.8913l0.0014 -0.0005c-0.2946,0.0974 -0.6079,0.1859 -0.9379,0.262 -0.4198,0.0969 -0.8235,0.1776 -1.2111,0.2422 -0.3876,0.0646 -0.6621,0.1131 -0.8236,0.1454l-1.3565 0.2422 0 0.7752c0,2.0993 -0.5491,4.1987 -1.6472,6.2981 -0.4845,0.9689 -1.0739,1.9217 -1.7683,2.8583 -0.6945,0.9367 -1.4615,1.8248 -2.3013,2.6646 -1.6472,1.6472 -3.4236,2.9714 -5.3291,3.9727 -1.0013,0.5167 -1.9783,0.9124 -2.9311,1.1869 -0.9528,0.2745 -1.8652,0.4118 -2.7372,0.4118 -1.3242,0 -2.3497,-0.3553 -3.0764,-1.0658 -0.7267,-0.7106 -1.0901,-1.6957 -1.0901,-2.9553 0,-1.6472 0.5491,-3.3267 1.6473,-5.0385 0.4844,-0.7428 1.0577,-1.4695 1.7198,-2.1801 0.6621,-0.7105 1.413,-1.4049 2.2528,-2.0832 1.3565,-1.0981 2.8745,-2.1317 4.554,-3.1006 1.6795,-0.9689 3.4236,-1.8248 5.2323,-2.5677 -0.1615,-0.872 -0.428,-1.7441 -0.7994,-2.6161 -0.3714,-0.8721 -0.8155,-1.6795 -1.3323,-2.4224 -0.4522,-0.6459 -1.082,-1.308 -1.8894,-1.9863 -0.8075,-0.6782 -1.7764,-1.0658 -2.9068,-1.1627l-0.2907 0c-0.3553,0 -0.646,-0.1131 -0.8721,-0.3392 -0.2261,-0.226 -0.3391,-0.5167 -0.3391,-0.872 0,-0.3553 0.113,-0.6459 0.3391,-0.872 0.2261,-0.2261 0.5168,-0.3392 0.8721,-0.3392l0.3391 0c1.0335,0 2.0832,-0.2422 3.1491,-0.7267 1.0658,-0.4844 2.0509,-1.1465 2.9552,-1.9863 0.9689,-0.872 1.7118,-1.849 2.2286,-2.931 0.5167,-1.082 0.7751,-2.1398 0.7751,-3.1733 0,-1.0658 -0.2099,-1.9863 -0.6298,-2.7615 -0.4199,-0.7751 -0.9689,-1.413 -1.6472,-1.9136 -0.6782,-0.5006 -1.4615,-0.8721 -2.3497,-1.1143 -0.8882,-0.2422 -1.7844,-0.3634 -2.6888,-0.3634 -1.2273,0 -2.6161,0.3149 -4.1664,0.9447 -1.5503,0.6299 -2.9875,1.4615 -4.3118,2.4951 -0.4521,0.3553 -0.9528,0.7994 -1.5018,1.3323 -0.5491,0.5329 -1.0659,1.1465 -1.5503,1.8409 -0.4845,0.6945 -0.8882,1.4696 -1.2112,2.3255 -0.323,0.8559 -0.4845,1.7683 -0.4845,2.7373 0,0.0645 0.0162,0.1292 0.0485,0.1937l0.0969 0c0.5168,0 0.9528,0.1858 1.3081,0.5572 0.3552,0.3714 0.5329,0.8155 0.5329,1.3323 0,0.549 -0.1858,0.9931 -0.5572,1.3322 -0.3714,0.3392 -0.8639,0.5087 -1.4776,0.5087 0,0 -0.0323,-0.0161 -0.0969,-0.0484 -0.872,-0.0969 -1.4857,-0.6137 -1.841,-1.5503 -0.1615,-0.3876 -0.2745,-0.7913 -0.3391,-1.2112 -0.0646,-0.4198 -0.0969,-0.7913 -0.0969,-1.1142 0,-2.0348 0.5329,-3.9323 1.5987,-5.6926 1.0659,-1.7602 2.4466,-3.2782 4.1422,-4.554 1.6957,-1.2757 3.577,-2.2851 5.6441,-3.0279 2.0671,-0.7429 4.118,-1.1143 6.1528,-1.1143 1.518,0 2.931,0.2019 4.2391,0.6056 1.308,0.4037 2.4466,0.977 3.4155,1.7199 1.0012,0.8074 1.7683,1.7602 2.3012,2.8583 0.5329,1.0982 0.7994,2.277 0.7994,3.5367 0,1.4857 -0.4037,2.9229 -1.2112,4.3117 -0.7751,1.2274 -1.8087,2.3416 -3.1006,3.3429 -1.518,1.195 -3.2459,2.1316 -5.1838,2.8099 0.646,0.3553 1.3161,0.7671 2.0105,1.2354 0.6945,0.4683 1.3566,1.0174 1.9864,1.6472 0.6298,0.6298 1.2031,1.3323 1.7198,2.1074 0.5168,0.7752 0.9205,1.6149 1.2112,2.5193 0.3553,-0.0646 0.8155,-0.1535 1.3807,-0.2665 0.5652,-0.113 1.1466,-0.2261 1.7441,-0.3391 0.5975,-0.1131 1.1708,-0.21 1.7199,-0.2907 0.4669,-0.0686 0.8661,-0.1027 1.2034,-0.1079 0.381,-0.6747 0.7997,-1.336 1.2674,-1.9995 1.1769,-1.6696 2.4869,-3.0199 3.9726,-4.0211 1.5503,-1.0659 3.0683,-1.5988 4.554,-1.5988 1.9056,0 2.8584,0.9366 2.8584,2.8099 0,1.3242 -0.3391,2.6646 -1.0174,4.0211 -0.2907,0.5491 -0.6378,1.1224 -1.0416,1.7199 -0.4037,0.5975 -0.8801,1.1869 -1.4292,1.7683 -1.0335,1.1304 -2.1397,2.164 -3.3186,3.1006 -1.1789,0.9367 -2.2366,1.728 -3.1733,2.3739 -0.4521,1.518 -0.6782,2.8099 -0.6782,3.8758 0,0.549 0.0565,0.9931 0.1696,1.3322 0.113,0.3392 0.2583,0.5976 0.436,0.7752 0.1776,0.1776 0.3795,0.2907 0.6056,0.3391 0.2261,0.0485 0.4683,0.0727 0.7267,0.0727 0.3229,0 0.7105,-0.0646 1.1627,-0.1938 0.4522,-0.1292 0.9689,-0.3795 1.5503,-0.7509 0.5813,-0.3715 1.2354,-0.8721 1.9621,-1.5019 0.7267,-0.6298 1.5261,-1.4615 2.3981,-2.495 0.6137,-0.7429 1.2112,-1.5019 1.7926,-2.277 0.5813,-0.7752 1.1304,-1.5422 1.6471,-2.3012 0.5168,-0.759 0.9932,-1.4777 1.4292,-2.1559 0.4361,-0.6783 0.8317,-1.2758 1.187,-1.7925 0,-0.0323 0.0323,-0.0808 0.0969,-0.1454 0.2583,-0.2584 0.5652,-0.3876 0.9205,-0.3876l0.0968 0c0.4199,0 0.7106,0.1777 0.8721,0.533zm-43.0209 16.9079c0.0646,0.4845 0.1858,0.7671 0.3634,0.8479 0.1776,0.0807 0.3149,0.1211 0.4118,0.1211 0.4522,0 1.0174,-0.1696 1.6956,-0.5087 0.6783,-0.3392 1.3808,-0.759 2.1075,-1.2596 0.7267,-0.5007 1.4453,-1.0417 2.1558,-1.623 0.7106,-0.5814 1.3081,-1.1304 1.7926,-1.6472 2.7453,-2.7776 4.2633,-5.7006 4.554,-8.7689 -1.5503,0.6783 -3.0602,1.4615 -4.5298,2.3497 -1.4695,0.8882 -2.8664,1.8652 -4.1906,2.931 -1.6472,1.3242 -2.7938,2.6404 -3.4398,3.9484 -0.6459,1.3081 -0.9689,2.382 -0.9689,3.2217 0,0 0.0161,0.0323 0.0484,0.0969l0 0.2907zm28.2931 -14.1465c0.5167,-0.4198 1.0173,-0.8559 1.5018,-1.308 0.4845,-0.4522 0.9528,-0.9205 1.4049,-1.405 1.9702,-2.0671 2.9553,-3.9565 2.9553,-5.6683 0,-0.2584 -0.0161,-0.4037 -0.0484,-0.436 -0.0969,0.0323 -0.2988,0.1695 -0.6056,0.4118 -0.3068,0.2422 -0.7348,0.7348 -1.2839,1.4776 -0.4521,0.6137 -0.9285,1.3242 -1.4291,2.1317 -0.5007,0.8074 -0.9932,1.6795 -1.4777,2.6161 -0.1615,0.3553 -0.331,0.7186 -0.5087,1.0901 -0.1776,0.3714 -0.3472,0.7348 -0.5086,1.09z"/>
    <path id="_201971288" class="fil3" d="M58.0322 201.565c-0.7106,2.3254 -1.5019,4.7235 -2.3739,7.1943 -0.8721,2.4708 -1.9217,4.772 -3.1491,6.9037 -1.3888,2.3254 -2.9229,4.118 -4.6024,5.3776 -2.0025,1.4534 -4.1988,2.1801 -6.5888,2.1801 -1.8733,0 -3.6174,-0.5006 -5.2323,-1.5018 -0.7428,-0.4522 -1.3969,-0.969 -1.9621,-1.5503 -0.5652,-0.5814 -1.0254,-1.2274 -1.3807,-1.9379 -1.4211,0.4845 -2.7453,0.7267 -3.9727,0.7267 -0.9689,0 -1.9459,-0.1938 -2.931,-0.5814 -0.9851,-0.3876 -1.8813,-0.9043 -2.6888,-1.5503 -0.9366,-0.7751 -1.6472,-1.6875 -2.1317,-2.7372 -3.3226,-7.1991 10.5631,-19.5372 15.5077,-23.7614 6.877,-5.8753 8.0554,-5.1398 5.8581,-10.4579 -2.4375,-5.8992 1.8211,-9.2002 0.3441,-15.7679 -1.2188,-5.4196 1.1604,-10.7179 1.3009,-16.1957 0.0987,-3.8462 -1.5653,-5.0044 2.2219,-2.1187 1.9471,1.4838 3.8925,2.5942 5.2719,4.1257 4.708,5.2269 9.9646,15.7818 6.5488,23.596 -0.52,1.1898 -1.4029,2.1036 -1.7646,3.1772 1.2449,-0.3374 3.2899,-1.4895 4.6286,-2.0669 1.5497,-0.6683 3.085,-1.3792 4.7837,-2.1061 2.9272,-1.2526 6.8546,-2.7821 9.1326,-4.2924 5.0923,-3.3764 10.0647,-7.6898 8.8775,-14.4601 -0.0746,-0.4254 -0.2169,-1.0328 -0.3557,-1.4229l-0.7097 -1.1777c-3.0235,9.0813 -14.9838,11.1192 -17.4437,2.8744 -1.419,-4.7562 1.8948,-8.3628 5.3987,-9.4139 5.2298,-1.1098 8.7516,0.9826 11.3341,3.4594 0.8967,-7.8323 -11.2407,-18.4352 -17.9165,-20.8372 -3.1613,-1.1374 -6.2794,-2.7274 -10.2454,-2.9685 -3.2901,-0.1999 -8.6032,0.6713 -11.5026,1.5333 -2.1182,0.6296 -2.2956,1.21 -3.323,2.9495 -3.1853,5.3934 -6.5404,1.3465 -2.2802,-1.5197 2.6881,-1.8085 6.5587,-2.7646 9.8426,-3.2619l5.7995 -0.9374c-7.9054,-1.6662 -7.9696,-6.0726 -14.7498,-7.8166 -1.6167,2.3743 -5.6106,4.533 -8.6406,4.0253 -1.7418,-0.2171 -7.2658,-2.6698 -8.7332,-4.2094 1.5439,-1.3086 2.9386,-1.5138 5.1844,-1.8772 1.8765,-0.3036 4.4872,-0.2792 6.5225,-0.1341 3.9663,0.2826 7.0635,1.6394 10.6196,3.0686 -1.305,-1.9339 -4.2951,-8.252 -6.3905,-8.9486 -1.6004,-0.5322 -3.9323,1.5702 -6.2947,-0.0652l-4.1839 -3.6128c3.0633,-1.9053 9.1595,0.9795 11.5452,3.3712 0.2945,0.2952 0.3276,0.3943 0.6073,0.6607l0.7583 0.5655c-0.0231,-1.698 -2.7498,-6.4884 -3.571,-7.6531l-5.1806 -6.2029c-2.5965,0.6041 -4.0452,4.3017 -6.5715,4.9139 -1.802,0.4367 -3.4826,-0.4453 -4.4948,-1.2528 -1.0594,-0.835 -1.9053,-2.4171 -1.9612,-4.1701 -2.2401,-1.3706 -3.2696,-1.7856 -3.8249,-5.0024 -0.6682,-3.8703 0.7326,-4.6282 1.8044,-6.9757 0.546,-1.1958 0.4935,-2.1621 1.9538,-2.3838 1.4311,-0.2172 0.8061,0.3883 1.8441,-0.4169 4.2794,-3.3195 4.3785,-0.9924 6.7124,-1.0689 0.8198,-0.0268 0.8392,-0.2694 1.8172,-0.0107 2.3021,0.6091 3.3087,2.4285 3.9521,4.9644 1.1584,4.565 -2.1261,8.919 0.1699,11.4799 2.1957,2.449 4.0163,4.8273 5.7519,7.5827 0.387,-5.7751 0.5353,-7.7832 2.3636,-12.7976 0.8925,-2.4474 1.656,-3.3375 1.2096,-6.3277 -0.1612,-1.0802 -0.5726,-2.3403 -0.4649,-3.368 0.1473,-1.4066 1.3136,-2.0949 2.0925,-0.8696 2.0102,3.1619 -5.1929,15.1063 -4.357,23.6685 0.1366,1.3997 -0.0765,0.5532 0.4749,1.662l0.3921 -0.9674c0.1191,-0.3299 0.257,-0.756 0.4165,-1.0867 2.0683,-4.2892 7.9097,-4.7698 12.0323,-8.8396 1.7506,-1.7282 3.7802,-4.0953 5.0924,-6.858 1.4192,-3.1072 1.6855,-6.6414 0.9271,-9.5777 -0.5421,2.1321 -6.914,5.0167 -7.5519,1.1926 -0.2944,-1.7645 1.1857,-3.2841 2.2457,-3.8263 1.7221,-0.8609 3.1556,-0.4329 4.9852,0.6093 1.4913,-2.1681 -0.2518,-15.7767 -0.9396,-18.895 -2.3229,-10.5332 -5.3729,-6.1381 -9.2693,-11.7379 -0.7737,-1.1119 -1.099,-2.3451 -1.6877,-3.3918 -0.6839,-1.216 -1.3731,-1.8353 -2.0909,-3.2573 -1.1158,-2.2107 -1.2309,-6.7022 -0.8094,-9.4774 0.4256,-2.8025 1.6322,-5.1499 2.5437,-7.8691 0.4622,-1.3787 1.002,-2.4634 1.6488,-3.6605 0.3223,-0.5966 0.6024,-1.0896 0.8352,-1.7159 0.3093,-0.832 0.4851,-1.0938 1.1344,-1.6482 0.6611,1.1428 1.0134,3.2049 1.8193,4.7342 0.8683,1.6472 1.5922,2.5824 2.3714,4.2826 1.3102,2.8589 2.0941,7.2347 3.0299,10.3991 2.4411,8.254 -1.3892,13.2919 -0.2378,17.2994l1.3916 5.5318c0.0469,-0.0618 0.1006,-0.24 0.1178,-0.2008 0.0168,0.0387 0.0876,-0.1486 0.109,-0.2012 0.4552,-1.1216 0.4508,-2.6542 0.7649,-3.8632 0.9479,-3.6504 2.8556,-6.949 4.7274,-10.1676 -0.1672,3.3715 -4.6467,7.7214 -4.6141,18.6391 0.0115,3.8376 0.6993,7.2691 0.7326,10.9159 0.0139,1.5321 -0.6491,4.8129 -0.5855,5.3012 0.2296,1.7617 0.7512,0.4462 0.8901,5.2943 2.6222,-4.6177 3.5248,-7.1224 6.7324,-12.1322 2.2764,-3.5554 1.6977,-2.3179 2.9643,-6.4734 0.7371,-2.4183 1.6661,-4.7362 2.9863,-6.6286 1.5129,-2.1685 2.8783,-2.8375 4.7872,-4.6069 1.9097,-1.7702 2.2032,-3.1202 5.3432,-4.2679 5.1375,-1.8777 9.468,-0.1204 13.4067,-0.7231l3.7702 -0.9005c-0.5383,1.1967 -1.9873,2.5756 -2.9125,3.4032 -2.7045,2.5471 -4.2396,9.09 -17.939,13.8259 -8.6885,3.0294 -9.6274,2.4533 -14.3389,11.0248 -1.5507,2.8212 -2.8714,5.5091 -4.3991,8.3173 -1.738,3.1945 -1.8801,5.2252 -4.1026,8.0901 -1.2404,2.1511 -3.8897,4.7719 -6.8807,6.368l1.1848 1.142c-5.4526,0.076 -10.9121,3.4816 -9.9506,9.4356 0.8425,5.2173 4.4758,10.3236 7.2746,12.5773 4.3868,3.5325 8.8935,4.037 15.7059,2.8722 2.5188,-0.4307 6.3878,-0.5848 8.4483,-1.3948 2.6682,-0.7601 4.0982,-3.527 3.6495,-6.2512 0.5905,0.3874 1.2189,0.6061 0.876,2.6265 -0.8371,4.9328 -6.9175,5.0019 -10.9567,5.5605l-6.0647 0.8632c0.6797,0.5964 1.8082,0.948 2.5902,1.2978 2.5009,1.1192 5.3552,2.4625 7.6084,3.7935 5.8229,3.4395 12.5859,9.6915 14.1536,16.5955 0.3239,1.4263 0.2895,2.028 0.3388,3.4714 0.0517,1.5119 0.4159,1.4328 1.0219,2.8277 0.6453,2.1234 1.0346,4.5885 0.5271,6.8827 0.7088,-0.4163 4.778,-5.7494 5.5853,-6.9058 2.6105,-3.7396 2.9461,-4.6707 0.1107,-8.7957 -1.9226,-2.7971 -0.9334,-4.4443 1.8564,-5.722 1.842,-0.8436 2.4804,-4.4995 6.124,-1.4902 1.1981,0.9896 2.1345,2.0636 1.766,4.4901 -0.2971,1.9554 1.602,2.6918 0.1231,4.9602 -1.2876,1.9751 -2.3809,1.1766 -4.8965,1.5655 -1.6699,0.2581 -2.1038,1.8999 -2.9971,3.2648 -2.5421,3.8842 -5.6145,7.138 -8.3397,10.7356 -2.1729,2.8684 -2.7809,4.4184 -5.9005,6.7579 -7.1623,5.3712 -17.6746,7.5984 -25.1549,12.7055 -1.3546,0.9249 -2.4336,1.7574 -3.7179,2.605 -1.2892,0.8508 -2.7277,1.588 -3.9821,2.3926 -4.0245,2.5816 -24.8853,21.5056 -21.8442,28.0683 0.3069,0.6622 0.7025,1.2354 1.187,1.7199 0.4844,0.4845 1.0174,0.8721 1.5987,1.1627 0.5814,0.2907 1.1466,0.436 1.6957,0.436 1.0981,0 2.4062,-0.3552 3.9242,-1.0658 -0.4845,-1.4534 -0.7267,-3.0844 -0.7267,-4.8931 0,-1.8733 0.2341,-3.6093 0.7024,-5.208 0.4684,-1.5988 1.1143,-2.9876 1.9379,-4.1665 0.8236,-1.1789 1.7925,-2.0994 2.9068,-2.7615 1.1143,-0.6621 2.3336,-0.9931 3.6578,-0.9931 2.5192,0 4.3602,0.6944 5.5229,2.0832 0.5491,0.6459 0.8882,1.2919 1.0174,1.9379 0.1292,0.6459 0.1938,1.1627 0.1938,1.5503 0,1.2596 -0.3714,2.6161 -1.1143,4.0695 -0.3553,0.6783 -0.7751,1.3727 -1.2596,2.0832 -0.4845,0.7106 -1.0174,1.405 -1.5988,2.0832 -1.1304,1.2919 -2.3658,2.4627 -3.7061,3.5124 -1.3404,1.0497 -2.7211,1.9298 -4.1423,2.6404 0.2261,0.3876 0.5087,0.7913 0.8479,1.2112 0.3391,0.4199 0.759,0.8074 1.2596,1.1627 0.5006,0.3553 1.0901,0.6459 1.7683,0.872 0.6782,0.2261 1.4534,0.3392 2.3254,0.3392 1.3889,0 2.6969,-0.6298 3.9243,-1.8895 1.0335,-0.9689 2.0186,-2.4062 2.9552,-4.3117 1.1627,-2.4224 2.1478,-4.9012 2.9553,-7.4366 0.8074,-2.5354 1.5503,-4.9659 2.2285,-7.2913 0.6137,-2.1317 1.1951,-4.0857 1.7441,-5.8621 0.5491,-1.7764 1.195,-3.3428 1.9379,-4.6993 0.7428,-1.518 1.631,-2.6646 2.6646,-3.4397 1.0981,-0.9044 2.3739,-1.3566 3.8273,-1.3566 1.0012,0 2.0024,0.2584 3.0037,0.7752 0.4199,0.2261 0.6298,0.5975 0.6298,1.1143 0,0.3229 -0.105,0.6056 -0.3149,0.8478 -0.2099,0.2422 -0.4925,0.3633 -0.8478,0.3633 -0.2261,0 -0.4684,-0.0646 -0.7267,-0.1937l-0.1454 0c-1.0658,0 -2.1639,1.1627 -3.2944,3.4881 -0.5813,1.2273 -1.1465,2.6323 -1.6956,4.2149 -0.5491,1.5826 -1.0981,3.2944 -1.6472,5.1354l-0.436 1.3081zm-13.644 -18.7744c-0.2539,-0.6965 -0.2566,-1.3201 -0.5594,-2.0522 -0.2577,-0.6229 -0.5192,-1.0206 -0.7866,-1.7743 -1.822,-5.1368 1.8863,-8.2535 0.8667,-13.8945 -0.772,-4.2709 -0.7029,-5.1025 0.0072,-9.4624 0.5378,-3.3023 1.015,-5.8918 1.0491,-9.4381 2.3717,6.301 4.9298,11.8387 5.1295,18.7504 0.1622,5.6178 -1.7754,14.52 -5.7065,17.8711zm27.2071 -37.481c2.0971,-0.4277 4.3771,0.0202 6.1238,0.7611 8.8591,3.7578 1.1126,10.2272 -2.0575,11.5309 -10.0881,4.1486 -13.8897,-10.2884 -4.0663,-12.292zm-26.6365 38.4047c0.561,-1.065 1.5788,-2.1245 2.4838,-3.5552 5.3614,-8.4751 3.9787,-20.3229 0.4412,-29.3676 -0.5724,-1.4633 -1.3559,-2.7117 -1.9219,-3.9423 3.3746,2.1624 5.8525,4.9226 8.3304,8.4087 1.8862,3.2061 3.8294,8.2498 3.827,12.9632 -0.6365,3.9409 -2.3404,7.1986 -4.5994,9.9013 -1.3814,1.066 -7.0699,5.0716 -8.5611,5.5919zm50.0096 -38.0966c0.2348,-0.4807 3.5931,-3.5195 4.4195,-4.1895 -0.5843,3.7693 0.1313,4.5101 -4.4195,4.1895zm-1.9328 0.917c-0.4783,-1.051 -0.6005,-1.9134 -1.2852,-3.0616 -0.4458,-0.7475 -1.4526,-1.9431 -1.6534,-2.7414 -0.4343,-1.7262 0.4047,-2.2129 1.5035,-2.7833 1.875,-0.9731 1.8183,-0.5806 2.8897,0.4434l-1.05 3.9144c-0.0441,1.692 0.3257,2.8236 -0.4046,4.2285zm0.6232 -10.0555c1.7862,-3.0944 5.1802,-0.0837 5.6521,1.6802 0.6058,2.2643 -2.6091,5.0677 -3.9959,5.5447 0.3902,-4.2215 1.0071,-4.4017 -1.1806,-6.6865l-0.4756 -0.5384zm-51.7594 63.923c-0.3876,-0.4844 -0.9528,-0.7267 -1.6957,-0.7267 -1.6795,0 -3.1167,0.759 -4.3118,2.277 -0.8074,1.0336 -1.4372,2.2932 -1.8894,3.7789 -0.4522,1.4857 -0.6783,3.0521 -0.6783,4.6993 0,1.1951 0.1454,2.3739 0.4361,3.5367 1.0335,-0.7429 2.0509,-1.615 3.0521,-2.6162 1.0013,-1.0012 1.9217,-2.0509 2.7615,-3.149 0.9044,-1.2273 1.5987,-2.3739 2.0832,-3.4398 0.4845,-1.0658 0.7267,-1.954 0.7267,-2.6645 0,-0.646 -0.1615,-1.2112 -0.4844,-1.6957zm-6.212 -69.9397c-0.3969,-1.5722 1.7451,-2.8818 3.1444,-3.2353 -0.4534,1.2392 -1.7053,3.5152 -3.1444,3.2353zm-13.5943 -15.5678c2.2686,-1.5206 12.3123,-1.6204 14.6555,0 -1.0971,1.7424 -4.9803,3.8371 -7.3264,3.562 -0.943,0.1705 -7.0886,-2.6393 -7.3291,-3.562zm16.4904 -6.6538c-0.0001,-0.0429 -0.0639,0.1294 -0.0884,0.094l0.0884 -0.094zm-3.7153 -1.8695c-1.5299,0.2556 -2.9352,0.9264 -4.4377,0.1392 -0.9136,-0.4785 -2.2222,-1.725 -2.6497,-2.6369 1.7892,0.2899 6.165,0.512 7.0874,2.4977zm-17.2886 -12.4163c4.4866,1.0889 7.2313,-0.5747 11.1478,-0.4407 -0.7999,0.9607 -1.6695,1.4659 -2.8244,2.6442 -0.5685,0.5799 -1.7681,1.964 -2.9121,2.2232 -2.6539,0.6015 -5.6992,-2.0881 -5.4113,-4.4267zm9.9302 -2.4808c-1.0396,-0.2298 -7.9696,-2.7713 -6.4692,-5.7322 1.8166,-0.7012 3.3215,2.0495 6.4692,5.7322zm0.2275 1.1911c-5.9283,1.3683 -13.4337,2.0943 -14.0947,-4.6995 -0.1795,-1.8453 0.2117,-3.0814 0.9692,-4.3509 1.0923,-1.8307 1.8793,-5.8019 5.0981,-1.9499 0.5035,0.6026 1.8079,2.2717 2.1717,3.0114l-0.3896 0.1954c-0.4693,0.2293 -0.835,0.3258 -1.1233,0.6822 -2.5582,3.1621 6.0117,6.4911 7.3686,7.1113zm13.5428 -9.9556c-0.1749,-1.121 -1.2556,-3.4299 0.0606,-4.0231 0.3247,1.4205 0.8246,2.7403 -0.0606,4.0231zm-22.3355 -3.112c0.669,-0.9965 2.4639,-2.0199 4.3142,-1.5396 1.38,0.3582 2.2526,1.9697 2.9874,2.9209 2.2341,2.8921 1.6834,5.3215 1.8926,9.5793l-4.9073 -5.2951 -3.1529 -4.463c-0.4751,-0.589 -0.7042,-0.6874 -1.134,-1.2025zm11.4576 4.0161c0.3151,1.5797 -0.4152,7.5776 -0.9458,8.6329 -0.9426,-2.3665 -0.2868,-5.4578 -0.8048,-8.1582 -0.5564,-2.901 -2.8521,-4.3608 -3.0259,-5.6787 2.8945,0.6458 4.2091,3.1277 4.7765,5.204zm26.0977 -8.0982c-0.9689,2.7776 -5.8459,4.5314 -6.0137,1.7908 -0.1667,-2.7203 3.7781,-4.095 6.0137,-1.7908zm12.2784 -11.5716c0.8008,-2.5708 1.577,-5.5072 3.2035,-7.7907 1.8607,-2.6124 3.6106,-3.1929 5.554,-5.3718 1.9041,-2.1348 3.3112,-3.4502 6.9717,-3.9356 3.3976,-0.4505 7.4775,0.0763 11.0432,-0.0769 -5.8045,2.9899 -16.474,7.9613 -21.1158,11.8263 -1.7828,1.4845 -5.2602,5.0904 -5.6566,5.3487zm1.3187 0.151c1.6487,-2.578 6.6422,-6.4644 9.9209,-8.2909 2.6059,-1.4517 10.196,-4.476 12.9613,-5.4195 -2.6482,3.479 -5.3069,6.325 -9.738,8.644 -2.1126,1.0999 -4.0274,1.9351 -6.4361,2.725l-6.7081 2.3414zm-16.1197 -18.1825c-2.0537,-6.6039 -5.7662,-13.7338 -5.951,-21.4127 -0.0366,-1.5181 -0.1979,-7.6608 0.1714,-8.5675l1.6043 3.1269c3.5433,6.5083 1.8209,3.596 3.8946,10.594 1.4605,4.9289 2.3202,7.2541 1.3589,12.5735 -0.1129,0.625 -0.2578,1.2686 -0.3783,1.8911 -0.2764,1.4274 -0.2296,1.3023 -0.6999,1.7947zm-11.1394 -15.5781c-0.0124,-3.8307 0.6489,-4.8533 1.7964,-7.8413 0.4705,-1.2254 0.7364,-2.4616 1.2402,-3.6289 0.4824,-1.1172 1.1493,-2.3008 1.6473,-3.1668 -0.2968,7.7262 -0.9146,10.044 1.0901,17.7259 1.2784,4.8989 4.4934,11.9025 5.1093,14.6589 -3.6327,-2.3852 -5.819,-2.9303 -7.4493,-6.9002 -0.7938,-1.933 -1.8088,-2.7053 -2.6687,-4.4786 -1.0042,-2.0708 -0.7687,-3.8868 -0.7653,-6.369z"/>
    <path id="_201971144" class="fil2" d="M125.609 85.7908c1.5132,-4.7752 5.8512,-9.8606 8.1067,-3.9078l-4.29 1.7132c-1.205,0.6296 -2.7475,1.8066 -3.8167,2.1946z"/>
    <path id="_201969920" class="fil3" d="M191.538 188.29c-0.7434,0.9364 -1.4943,1.8406 -2.2527,2.7127 -0.7591,0.872 -1.4943,1.6798 -2.2048,2.4225 -0.7106,0.7426 -1.3807,1.4046 -2.0104,1.9864 -0.6298,0.5812 -1.187,1.0336 -1.6716,1.356 -1.0007,2.0029 -1.9536,3.9812 -2.8578,5.9355 -0.905,1.9535 -1.7441,3.8831 -2.5197,5.7888 0.1294,-0.1286 0.2827,-0.2423 0.4607,-0.3388 0.1772,-0.0972 0.347,-0.1458 0.5086,-0.1458 0.1615,0 0.2744,0.0164 0.3388,0.0486 1.0336,-0.0643 2.0837,-0.3792 3.1494,-0.9446 1.0658,-0.5655 2.0912,-1.276 3.0762,-2.1316 0.985,-0.8556 1.9296,-1.7763 2.8339,-2.7613 0.9042,-0.985 1.7284,-1.9461 2.4711,-2.8825l0.0486 -0.0486c0.0643,-0.065 0.1615,-0.1458 0.2902,-0.2423 0.1294,-0.0972 0.3231,-0.1451 0.5819,-0.1451 0.3223,0 0.5968,0.1129 0.8234,0.3388 0.2259,0.2259 0.3388,0.5004 0.3388,0.8235 0,0.3231 -0.1129,0.5976 -0.3388,0.8234 -0.8399,1.0015 -1.7037,1.9947 -2.5923,2.9797 -0.8877,0.985 -1.8488,1.9296 -2.8824,2.8346 -1.8735,1.5826 -3.6977,2.6641 -5.4748,3.2452 1.0015,1.163 1.825,2.6648 2.4712,4.5062 0.3874,1.2273 0.6865,2.5594 0.896,3.9969 0.2101,1.4367 0.3148,2.9311 0.3148,4.4807 0,2.1967 -0.2019,4.2639 -0.605,6.2018 -0.4039,1.9378 -0.9933,3.6655 -1.7689,5.1838 -0.807,1.6147 -1.8249,2.8907 -3.0522,3.827 -1.2917,1.0015 -2.7449,1.5019 -4.3596,1.5019 -2.6162,0 -4.667,-1.0823 -6.1531,-3.246 -0.7105,-0.9685 -1.243,-2.1398 -1.5983,-3.5122 -0.356,-1.3724 -0.5333,-2.8825 -0.5333,-4.5301 0,-1.7113 0.2663,-3.7703 0.7996,-6.1771 0.5325,-2.406 1.3163,-5.1105 2.3492,-8.1149 0.3664,-1.0725 0.7569,-2.1592 1.1719,-3.2616l-0.3724 0.3792c-0.9529,0.9528 -1.9783,1.801 -3.0762,2.5436 -1.0979,0.7106 -2.1637,1.0658 -3.1973,1.0658 -1.3246,0 -2.3253,-0.4682 -3.0037,-1.4046 -0.6783,-0.8077 -1.0179,-2.0029 -1.0179,-3.5855 0,-0.6551 0.0456,-1.3425 0.1361,-2.0627 -0.4614,0.629 -0.9423,1.252 -1.4442,1.869 -0.5811,0.6784 -1.2026,1.365 -1.8645,2.059 -0.6627,0.6948 -1.3814,1.3321 -2.1563,1.9139 -1.8406,1.4211 -3.7463,2.1316 -5.717,2.1316 -1.6791,0 -3.068,-0.5976 -4.1659,-1.7927 -1.2274,-1.3889 -1.8414,-3.3425 -1.8414,-5.8622 0,-1.97 0.3874,-4.0208 1.163,-6.1524 0.3553,-0.9371 0.7666,-1.8653 1.2356,-2.7859 0.4682,-0.9207 1.0089,-1.8003 1.6229,-2.6402 1.1623,-1.6798 2.4869,-3.0201 3.9722,-4.0215 1.5505,-1.0658 3.0687,-1.5983 4.5541,-1.5983 1.9057,0 2.8585,0.9364 2.8585,2.8099 0,1.3238 -0.3388,2.6648 -1.0171,4.0208 -0.291,0.549 -0.638,1.1226 -1.0419,1.7202 -0.4039,0.5976 -0.8803,1.1869 -1.4293,1.7681 -1.0336,1.1308 -2.1397,2.1637 -3.3185,3.1008 -1.1787,0.9364 -2.237,1.7277 -3.1734,2.3739 -0.4517,1.5175 -0.6783,2.8099 -0.6783,3.8757 0,0.549 0.0568,0.9932 0.1697,1.332 0.113,0.3396 0.2581,0.5976 0.4361,0.7756 0.1772,0.1773 0.3792,0.2902 0.6058,0.3388 0.2259,0.0486 0.4682,0.0726 0.7262,0.0726 0.3231,0 0.7105,-0.0643 1.163,-0.1937 0.4525,-0.1294 0.9686,-0.3792 1.5505,-0.7509 0.5811,-0.3717 1.2355,-0.8721 1.9617,-1.5018 0.727,-0.6298 1.5265,-1.4615 2.3986,-2.4951 0.6133,-0.7427 1.2109,-1.5018 1.792,-2.2767 0.5819,-0.7755 1.1309,-1.5422 1.6477,-2.3013 0.5168,-0.7591 0.9932,-1.4779 1.4292,-2.1562l0.3134 -0.4839c0.2423,-0.7076 0.5011,-1.4263 0.7764,-2.1563 0.5168,-1.3724 1.05,-2.7373 1.599,-4.0941l0.3388 -0.7748c0.1937,-0.5168 0.4525,-1.163 0.7748,-1.9378 0.3231,-0.7756 0.6784,-1.6148 1.0666,-2.519 0.3874,-0.905 0.807,-1.8496 1.2595,-2.8346 0.4517,-0.985 0.9363,-1.9618 1.4532,-2.9311 1.3567,-2.5833 2.6079,-4.489 3.7545,-5.7163 1.1465,-1.2274 2.2527,-1.8414 3.3185,-1.8414 0.8399,0 1.5018,0.3231 1.9865,0.9693 0.3874,0.549 0.5811,1.243 0.5811,2.0829 0,0.7106 -0.1369,1.5183 -0.4114,2.4225 -0.2745,0.9043 -0.6058,1.8003 -0.9932,2.6888 -0.3874,0.8878 -0.7831,1.7195 -1.1869,2.495 -0.4039,0.7749 -0.7352,1.4046 -0.9933,1.8893 -1.0014,1.7763 -2.0425,3.4157 -3.1248,4.9175 -1.0822,1.5018 -2.0425,2.6566 -2.8824,3.4636 -0.549,1.3567 -1.0905,2.7217 -1.623,4.0941 -0.5333,1.3724 -1.0097,2.6805 -1.4293,3.9243 -0.4196,1.2431 -0.7673,2.3739 -1.0418,3.3911 -0.2745,1.0171 -0.4114,1.8331 -0.4114,2.4464 0,0.3231 0.024,0.5572 0.0726,0.703 0.0486,0.1451 0.089,0.2499 0.1211,0.3149 0.0322,0.0322 0.0644,0.0479 0.0965,0.0479 0.291,0 0.6627,-0.1451 1.1144,-0.436l0 -0.0479c1.9379,-1.2924 3.5773,-2.875 4.9176,-4.7478 1.3283,-1.8563 2.664,-3.9019 4.008,-6.1389 0.5916,-1.2542 1.2019,-2.5025 1.8294,-3.7448 1.5183,-2.9715 3.0201,-5.6924 4.5055,-8.1635 1.4861,-2.4703 2.9557,-4.6423 4.4089,-6.5158 1.4862,-1.97 2.9072,-3.504 4.2632,-4.6027 1.4861,-1.2595 2.8263,-1.8892 4.0215,-1.8892 0.7105,0 1.2595,0.2019 1.6469,0.6058 0.3874,0.4039 0.5811,0.9611 0.5811,1.6716 0,0.5489 -0.1368,1.2108 -0.4113,1.9857 -0.2745,0.7756 -0.7188,1.6798 -1.332,2.7134 -0.4847,0.8399 -1.0583,1.7359 -1.7203,2.6888 -0.6619,0.9528 -1.3971,1.9461 -2.2041,2.9797zm-40.5983 14.0496c0.5161,-0.4204 1.0172,-0.8564 1.5018,-1.3081 0.4839,-0.4525 0.9528,-0.9207 1.4046,-1.4054 1.97,-2.0672 2.955,-3.9564 2.955,-5.6684 0,-0.258 -0.0157,-0.4031 -0.0479,-0.4361 -0.0972,0.033 -0.2991,0.1698 -0.6058,0.4121 -0.3066,0.2424 -0.7344,0.7352 -1.2841,1.4779 -0.4518,0.6133 -0.9282,1.3238 -1.4293,2.1316 -0.5004,0.8077 -0.9925,1.6791 -1.4771,2.6162 -0.1616,0.3553 -0.3314,0.7187 -0.5086,1.0897 -0.178,0.3717 -0.3478,0.7352 -0.5086,1.0905zm23.5451 -15.9396c0.6133,-1.1301 1.1301,-2.1959 1.5497,-3.1973 0.4203,-1.0008 0.727,-1.8728 0.9207,-2.6163 -0.3553,0.8078 -0.7749,1.7606 -1.2595,2.8586 -0.4847,1.0979 -1.0172,2.3252 -1.599,3.682 0.065,-0.1294 0.1293,-0.2506 0.1937,-0.3635 0.065,-0.113 0.1294,-0.2341 0.1944,-0.3635zm19.5722 -6.2975c-1.0336,1.0658 -2.148,2.4465 -3.3424,4.142 -1.1952,1.6955 -2.4225,3.6094 -3.682,5.741 0.4839,-0.549 0.9768,-1.1144 1.4771,-1.6955 0.5011,-0.5819 0.9768,-1.1795 1.4293,-1.7928 1.0336,-1.3567 1.8892,-2.5676 2.5676,-3.6334 0.6784,-1.0657 1.1952,-1.9864 1.5504,-2.7613zm-15.6 30.2308c-0.3231,-0.1616 -0.525,-0.3478 -0.6051,-0.5572 -0.0807,-0.2102 -0.1211,-0.3799 -0.1211,-0.5086 -0.8078,1.97 -1.5348,3.94 -2.1802,5.91 -0.9371,2.7778 -1.6634,5.2728 -2.1802,7.4852 -0.5168,2.2123 -0.7756,4.029 -0.7756,5.45 0,0.7756 0.089,1.6963 0.267,2.7621 0.1773,1.0658 0.4765,2.0829 0.896,3.0522 0.84,1.8728 1.9057,2.81 3.1974,2.81 0.6783,0 1.3649,-0.3478 2.059,-1.0419 0.6948,-0.6948 1.332,-1.6716 1.9139,-2.9311 0.6455,-1.3567 1.1383,-2.8989 1.4771,-4.6266 0.3396,-1.7277 0.5094,-3.4965 0.5094,-5.3049 0,-1.5183 -0.1055,-2.9551 -0.3149,-4.3118 -0.2102,-1.3567 -0.5415,-2.5997 -0.9932,-3.7306 -0.7435,-2.0994 -1.7606,-3.569 -3.0523,-4.4082 -0.0321,0 -0.065,-0.0164 -0.0972,-0.0486z"/>
    <path id="_201970040" class="fil3 str2" d="M151.762 181.314c0.0323,0.1615 0.0565,0.3472 0.0727,0.5571 0.0161,0.21 0.0242,0.428 0.0242,0.6541 0,2.1962 -0.9205,4.3118 -2.7615,6.3465 0,0.0323 -0.0161,0.0485 -0.0484,0.0485 -0.1615,0.1614 -0.3311,0.2583 -0.5087,0.2906 -0.1777,0.0323 -0.2988,0.0485 -0.3634,0.0485 -0.3552,0 -0.6459,-0.1131 -0.872,-0.3391 -0.2261,-0.2261 -0.3391,-0.5007 -0.3391,-0.8237 0,-0.2583 0.0404,-0.4521 0.1211,-0.5813 0.0807,-0.1292 0.1534,-0.2261 0.218,-0.2907 1.4211,-1.5826 2.1317,-3.1652 2.1317,-4.7478 0,-0.6459 -0.105,-1.1869 -0.3149,-1.623 -0.21,-0.436 -0.3957,-0.767 -0.5572,-0.9931 -0.2261,-0.323 -0.4522,-0.5491 -0.6782,-0.6783 -0.2261,-0.1292 -0.3876,-0.1937 -0.4845,-0.1937 -1.2273,0 -2.4385,1.2434 -3.6335,3.7304 -0.6137,1.3242 -1.187,2.8503 -1.7199,4.5782 -0.5329,1.7279 -1.0577,3.4801 -1.5745,5.2565 -0.1615,0.549 -0.3149,1.1466 -0.4602,1.7925 -0.1454,0.646 -0.2988,1.3242 -0.4603,2.0348 -0.2261,0.9366 -0.4603,1.9055 -0.7025,2.9068 -0.2422,1.0012 -0.5167,2.0105 -0.8236,3.0279 -0.3068,1.0174 -0.654,2.0267 -1.0416,3.0279 -0.3876,1.0013 -0.8236,1.9541 -1.3081,2.8584 -0.549,1.0335 -1.1465,1.9379 -1.7925,2.713 -0.6459,0.7752 -1.3403,1.4373 -2.0832,1.9864 -1.7441,1.2596 -3.7466,1.8894 -6.0074,1.8894 -2.0348,0 -3.795,-0.4845 -5.2807,-1.4534 -1.3889,-0.8721 -2.4224,-2.0509 -3.1006,-3.5366 -1.4212,0.4845 -2.7776,0.7267 -4.0696,0.7267l-0.7751 0c-2.5193,-0.1938 -4.4249,-1.2273 -5.7168,-3.1006 -8.665,-12.3785 6.6025,-34.3064 11.7488,-46.234 5.2556,-12.181 3.1106,-14.2109 4.8118,-25.5007 1.5892,-10.5468 3.4564,-13.3196 9.2059,-20.3541 -2.2082,0.4626 -4.5332,1.4825 -6.6925,2.1455 -2.1754,0.6679 -4.653,0.9711 -7.0752,1.5073 -4.7782,1.0576 -8.9069,2.8407 -13.7457,3.6093 -11.5785,1.8393 -16.5522,-2.2278 -25.4044,-8.4277 5.6434,1.189 10.6259,9.0335 22.5158,7.8841 4.6056,-0.4452 8.2664,-1.7864 12.4089,-2.9477 8.6624,-2.4284 14.3962,-2.6725 23.5162,-7.2034 4.2792,-2.1259 11.093,-6.7907 11.4434,-11.7374 0.3431,-4.8439 -5.3779,-7.9962 -6.4088,-9.1384l-2.9141 -4.974c-0.0018,0.0005 -6.135,3.0086 -7.1248,2.9116l-1.2518 -0.3773c4.5395,-1.3333 3.944,-1.2136 8.1182,-3.2568 -1.4687,-6.5893 -11.287,-0.7122 -14.9696,2.0215l-4.4188 3.0999c0.1126,-1.2773 0.0364,-0.272 1.8329,-1.8777 0.6942,-0.6205 1.1824,-1.1826 1.6996,-2.1061 1.0194,-1.8203 3.9776,-9.7662 7.833,-7.9231l4.2072 2.947c0.3307,-0.3061 0.2124,0.2433 -0.2419,-0.7334 -0.8613,-1.8514 -0.0996,-2.7951 -0.7869,-4.8625 -1.3211,-3.9742 -6.3722,-5.1148 -8.4726,-0.8449l-2.4918 5.026c-0.0151,-0.0645 0.9157,-5.3372 3.6373,-7.4289l1.0237 -1.0279c-8.274,-1.6491 5.5117,-14.6187 -6.0495,-16.5083 -4.0072,-0.6551 -7.8919,-0.5421 -11.6839,-1.3054 -1.9281,-0.3883 -3.5757,-0.8832 -4.9195,-1.716 -1.3991,-0.8669 -2.4687,-2.7523 -2.2226,-3.4542l0.4567 -0.8446c1.0649,3.9062 1.9719,3.5083 6.8411,5.2071 -0.3723,-0.9633 -0.7025,-1.1671 -1.0746,-2.1598 -0.9326,-2.4876 -1.0895,-4.1491 -3.5261,-6.3519 -1.098,-0.9927 -2.2639,-1.7014 -3.5915,-2.7631 -4.5811,-3.6639 -12.2162,-9.3514 -17.3733,-12.0876 -1.2632,-0.6702 -1.0973,-0.4235 -2.026,-1.4444 3.7762,0.3065 13.3405,7.6204 16.607,10.2345 2.3522,1.8824 5.6991,4.0407 7.5047,5.9536 3.4,3.602 2.7546,7.0727 4.9035,8.5229 3.8021,2.5659 18.7531,-2.2797 15.2789,10.7606 -0.3487,1.309 -1.3845,3.9112 -1.1702,5.1647 0.5659,3.3106 5.5634,1.3113 8.2995,5.1363 1.5301,2.1389 0.8954,3.0686 1.2767,5.6135 0.275,1.8351 2.0537,2.1373 3.2206,3.337 3.3624,3.4568 -1.441,3.0967 5.1621,8.2934 1.3383,1.0533 2.5502,2.1524 3.5129,3.3489 0.966,1.2006 2.0184,2.2497 2.1494,4.579 0.3554,6.3196 -8.0843,11.9073 -12.9828,14.1177 -2.3138,1.0441 -2.5901,1.043 -4.2129,2.6139 -2.0912,2.0244 -4.1949,4.8279 -5.6183,7.7993 -2.8646,7.9926 -3.4235,12.484 -3.9824,24.4902 0.8521,-1.8958 0.6739,-7.3629 2.3655,-12.6064 1.1587,-3.5917 2.9858,-7.5476 4.9738,-10.0007 5.953,-6.0118 12.2903,-8.1381 20.5489,-9.325 0.1275,1.1581 -0.7231,1.5973 -1.3324,2.6234l-4.3956 8.3376c-1.8896,3.855 -0.7133,6.3618 -7.062,9.9004 -7.3275,4.0842 -4.3598,5.8447 -8.4139,8.3773 -5.4063,3.3775 -5.5892,2.2523 -7.5773,9.3964 -1.2129,4.3585 -3.0879,8.1989 -4.9426,11.8654 -4.659,9.2097 -14.2932,27.6044 -9.6154,38.0819 0.2861,0.6409 0.646,1.2112 1.1143,1.6957 0.4683,0.4844 1.0255,0.864 1.6714,1.1385 0.646,0.2745 1.3565,0.4279 2.1317,0.4602 1.0012,-0.0969 2.1155,-0.5006 3.3428,-1.2112 -0.2907,-1.1627 -0.436,-2.4223 -0.436,-3.7788 0,-1.8733 0.2342,-3.6577 0.7025,-5.3534 0.4683,-1.6956 1.1708,-3.2217 2.1074,-4.5782 0.9367,-1.4211 2.0348,-2.5031 3.2944,-3.2459 1.2596,-0.7429 2.6,-1.1143 4.0211,-1.1143 2.2608,0 3.9565,0.6298 5.0869,1.8894 0.5491,0.646 0.8963,1.2838 1.0416,1.9137 0.1454,0.6297 0.218,1.0739 0.218,1.3322 0,1.1628 -0.3552,2.4466 -1.0658,3.8516 -0.7105,1.4049 -1.6633,2.7937 -2.8583,4.1664 -1.1951,1.3727 -2.5516,2.6727 -4.0696,3.9 -1.518,1.2273 -3.1006,2.2285 -4.7478,3.0037 0.2261,0.4199 0.5087,0.8397 0.8478,1.2596 0.3391,0.4199 0.751,0.7913 1.2354,1.1143 0.4845,0.323 1.0416,0.5894 1.6714,0.7993 0.6299,0.21 1.3646,0.315 2.2044,0.315l0.0484 0c1.841,0 3.4721,-1.5342 4.8932,-4.6025 0.7105,-1.518 1.3403,-3.2459 1.8894,-5.1838 0.5491,-1.9379 1.0981,-3.9727 1.6472,-6.1043l1.0174 -3.6336 0.2906 -1.1627c0.6137,-2.1962 1.1951,-4.2149 1.7441,-6.0558 0.5491,-1.841 1.1789,-3.4559 1.8895,-4.8447 0.8397,-1.518 1.7441,-2.6485 2.713,-3.3913 1.0981,-0.872 2.4223,-1.3081 3.9727,-1.3081 0.3552,0 0.8397,0.0566 1.4534,0.1696 0.6136,0.113 1.2434,0.3795 1.8894,0.7994 1.3565,0.872 2.2286,2.277 2.6161,4.2148l0 0.0485zm-30.2309 12.2571c-0.9366,1.1304 -1.6875,2.5354 -2.2527,4.2149 -0.5653,1.6794 -0.8479,3.4235 -0.8479,5.2322 0,0.4845 0.0162,0.9366 0.0485,1.3565 0.0323,0.4199 0.0807,0.8236 0.1454,1.2112 1.0981,-0.7752 2.1801,-1.6714 3.2459,-2.6888 1.0658,-1.0174 2.0509,-2.0913 2.9552,-3.2217 1.0013,-1.2273 1.7845,-2.3901 2.3497,-3.4882 0.5652,-1.0981 0.8479,-1.9863 0.8479,-2.6646 0,-0.1615 -0.0243,-0.3714 -0.0727,-0.6298 -0.0485,-0.2584 -0.1454,-0.5087 -0.2907,-0.7509 -0.1453,-0.2423 -0.3472,-0.4522 -0.6056,-0.6298 -0.2584,-0.1777 -0.5814,-0.2665 -0.9689,-0.2665 -1.7441,0 -3.2621,0.7752 -4.5541,2.3255zm3.6606 -46.1618c0.6284,-2.2634 2.7427,-7.0262 3.8626,-9.0464 2.8242,-5.0943 7.6555,-10.9609 12.0812,-14.3379l7.9543 -5.4282c-0.831,3.0914 -3.1543,5.9361 -4.3891,8.7155 -1.2557,2.8264 -0.8935,5.3535 -5.0564,8.1605 -2.9157,1.966 -5.0071,2.0967 -7.201,6.0219 -0.9935,1.7774 -1.5419,2.4287 -3.1275,3.4584l-4.1241 2.4562zm0.0308 -2.6413c-0.3682,-5.8996 3.8704,-15.6981 6.4914,-18.7264 4.2622,-4.1579 10.3176,-7.1631 16.245,-7.8625 -5.6743,3.6317 -3.9396,1.9388 -9.9878,7.5043 -3.7814,3.4796 -5.8796,6.0171 -8.6162,10.4101 -1.6686,2.6787 -3.0016,5.5538 -4.1324,8.6745z"/>
    <path id="_201969848" class="fil3" d="M95.2044 79.2635c1.8487,1.3818 1.8966,3.5234 5.023,4.1538 -0.7707,0.8639 -1.7653,1.525 -2.8882,1.3429 -0.9481,-1.3635 -2.0547,-3.1897 -2.1348,-5.4967zm1.7672 0.4047c2.2875,-0.2614 5.5739,0.3752 4.6636,2.2689 -0.1258,0.0457 -0.927,1.2475 -1.7413,0.7386 -0.8739,-0.5462 -3.3273,-1.8793 -2.9223,-3.0075zm-1.6011 -1.5942c0.5439,-0.4657 4.0907,-0.3254 4.1454,-0.3101 1.5232,0.3633 2.3418,1.2602 2.6482,2.0505 -4.2384,-2.0208 -4.8047,0.4647 -6.7936,-1.7404zm-13.736 -4.4601c0.4832,0.3646 1.3178,1.9329 1.6889,2.4326 1.1393,1.5353 1.1732,1.7439 2.7627,2.9894 0.9739,0.7631 0.9232,0.4463 1.6044,1.4732 -3.4278,-0.1658 -5.7724,-3.569 -6.056,-6.8952zm1.7622 1.3163c2.8801,0.9996 4.7781,3.5791 5.7582,5.5608 -1.7436,-0.4333 -4.758,-3.4431 -5.7582,-5.5608zm15.94 -2.5786c0.5549,-0.8319 1.506,-1.0906 2.2582,-0.3827 -0.5889,0.6133 -1.1318,0.4595 -2.2582,0.3827zm-21.8111 -1.8957c1.6758,1.2625 2.6261,-0.3161 3.3933,2.5963 0.6912,2.6243 0.9534,6.794 4.8382,7.8891 2.1085,0.5942 0.6993,-0.3297 5.2063,1.3209 -0.292,-1.3941 -1.0969,-2.1846 -1.8229,-3.4897 -1.9077,-3.4292 -4.2954,-4.5367 -8.224,-7.5547 0.8413,-0.3984 1.6111,-0.307 2.7843,-0.4727 2.674,-0.3778 2.2781,-0.0061 5.9114,3.4981 0.8062,0.7776 4.7552,4.0154 5.0255,4.8741 0.0021,0.0066 0.7072,6.892 3.7229,6.1788 0.6757,-0.1598 3.6071,-2.517 3.851,-2.964 0.1443,-0.2644 1.1028,-3.9757 -1.0566,-4.8716 -0.979,-0.4062 -4.6095,-0.4319 -5.9303,0.0751l-0.2977 0.131 -4.0634 -3.6067 4.2781 0.9255c-0.0118,-1.7924 -1.9886,-2.9108 -4.2642,-2.5413 -2.0587,0.3343 -1.0812,0.4514 -4.3751,-1.9882 0.576,-0.4777 2.9507,-1.1329 3.7368,-0.9423 0.8076,0.1958 2.538,1.3351 3.3445,1.7713 2.4762,1.0078 5.2087,1.9517 8.2612,1.2944 0.7791,-0.8692 -0.7418,-1.8768 -2.093,-1.1623 -0.4752,0.1876 -0.3123,0.1785 -0.7256,0.3471 -2.1895,0.8978 -5.3835,-1.3722 -8.2521,-2.8318 4.5467,-2.8592 3.7487,-1.1092 6.4443,-1.1617 0.75,0.0121 1.0318,-0.1543 1.3791,-0.4812 -1.7014,0.0588 -3.0826,-0.1813 -3.8874,-0.6562 4.107,-0.8819 6.0894,-0.8413 9.7177,-2.6171 -2.4437,0.5724 -5.0604,1.2017 -7.3692,0.7151 0.4948,-1.2604 1.0523,-1.45 2.4354,-2.6997 -2.5837,-0.0801 -3.7241,3.6625 -9.2309,6.0625 -5.5663,2.4259 -11.7971,1.8352 -12.7376,2.3619z"/>
    <path id="_201969704" class="fil3" d="M67.6264 112.936c-0.3824,-0.4562 0.0249,-0.1032 -0.502,-0.4565 -0.2239,-0.1502 -0.1736,-0.1292 -0.5667,-0.2796 -2.7182,-1.0396 -5.9081,-0.2035 -8.2867,1.0669 -5.1524,2.7517 -4.6058,-0.4743 -8.2985,-0.9578 -2.1123,-0.2765 -3.4908,0.451 -4.8752,-0.9126 -3.1899,-3.1415 -0.9449,-6.6939 3.7563,-7.7821 0.9661,-0.2236 1.6313,-0.1014 2.0883,-0.655l-4.762 0.7849c-2.598,0.8544 -4.6539,4.0634 -2.1213,7.667 0.9139,1.3004 1.9614,1.6121 4.1409,1.6267 4.5393,0.0307 4.8464,3.6706 9.5511,1.4809 4.8881,-2.2749 3.7407,-1.9009 9.8758,-1.5828z"/>
    <path id="_201970688" class="fil3" d="M81.8451 64.9842c1.9737,-0.2473 8.7599,-7.6129 13.9535,-6.2464 1.4801,0.3894 0.2497,0.6333 2.212,0.1902l-4.8613 -1.1741c0.5524,-1.0643 0.4613,-0.6032 0.9094,-1.9506l-0.9632 0.6466c-3.1538,2.957 -1.1334,1.1788 -5.5393,3.8551 -1.3345,0.8106 -5.5051,3.4506 -5.7111,4.6792z"/>
    <path id="_201970640" class="fil3" d="M119.419 72.3325c-5.225,0.2147 -4.6381,-2.356 -5.3479,-6.2669 -0.4218,0.6986 -0.8669,0.6539 -0.8147,2.357 0.0601,1.9606 1.2737,3.5576 2.9796,4.3454 1.1286,0.5213 2.3717,0.5928 3.183,-0.4355z"/>
    <path id="_201970424" class="fil3" d="M120.704 69.3063c0.0706,0.0369 0.1699,0.0155 0.2145,0.1057 0.0199,0.0402 1.2018,0.5937 1.7291,-0.4497 0.5552,-1.0985 -1.3437,-2.9432 1.783,-5.0451 0.0447,-0.03 0.1178,-0.0745 0.1588,-0.1016l0.3182 -0.2159c-1.1007,-1.1626 -2.2279,0.9515 -2.7834,1.7984 -0.7512,1.145 -1.9947,2.4222 -1.4202,3.9082z"/>
   </g>
   <g>
    <path id="_344741056" class="fil4" d="M65.7082 259.209c0,0.6417 -0.1544,1.1233 -0.4646,1.4449 -0.3088,0.3201 -0.6856,0.4816 -1.129,0.4816 -0.2422,0 -0.4532,-0.0454 -0.6303,-0.1332 -0.1771,-0.0892 -0.3315,-0.2323 -0.4646,-0.432l0 0.4986 -0.6644 0 0 -5.6774 0.6644 0 0 2.4562c0.1331,-0.1983 0.2875,-0.3484 0.4646,-0.4476 0.1771,-0.0992 0.3881,-0.1502 0.6303,-0.1502 0.4434,0 0.8202,0.1672 1.129,0.4987 0.3102,0.3314 0.4646,0.8187 0.4646,1.4604zm13.6138 1.8934l-0.8303 0 -1.8266 -4.1178 -0.034 0 0 4.1178 -0.7637 0 0 -5.6793 0.8303 0 1.8265 4.1178 0.034 0 0 -4.1178 0.7638 0 0 5.6793zm68.1152 -1.8605c0,0.5767 -0.1771,1.0415 -0.5314,1.3957 -0.3543,0.3543 -0.7751,0.5314 -1.2611,0.5314 -0.4875,0 -0.9083,-0.1771 -1.2626,-0.5314 -0.3542,-0.3542 -0.5313,-0.819 -0.5313,-1.3957 0,-0.5753 0.1771,-1.0401 0.5313,-1.3944 0.3543,-0.3542 0.7751,-0.5313 1.2626,-0.5313 0.486,0 0.9068,0.1771 1.2611,0.5313 0.3543,0.3543 0.5314,0.8191 0.5314,1.3944zm-0.7298 0c0,-0.4421 -0.1119,-0.7751 -0.333,-0.9962 -0.221,-0.221 -0.4647,-0.3316 -0.7297,-0.3316 -0.2664,0 -0.5102,0.1106 -0.7312,0.3316 -0.2211,0.2211 -0.3316,0.5541 -0.3316,0.9962 0,0.4435 0.1105,0.7751 0.3316,0.9961 0.221,0.2225 0.4648,0.333 0.7312,0.333 0.265,0 0.5087,-0.1105 0.7297,-0.333 0.2211,-0.221 0.333,-0.5526 0.333,-0.9961zm-4.9822 1.8605l-0.6645 0 0 -5.6793 0.6645 0 0 5.6793zm-4.251 0l-0.6645 0 0 -5.6793 0.6645 0 0 5.6793zm-2.8892 -1.2626c-0.0439,0.3982 -0.2211,0.7199 -0.5314,0.9636 -0.3103,0.2437 -0.6759,0.3656 -1.0967,0.3656 -0.5314,0 -0.9678,-0.1715 -1.3108,-0.5158 -0.3443,-0.3429 -0.5157,-0.8134 -0.5157,-1.4113 0,-0.598 0.1714,-1.0684 0.5157,-1.4114 0.343,-0.3429 0.7794,-0.5143 1.3108,-0.5143 0.4662,0 0.8473,0.1487 1.1463,0.4477 0.299,0.299 0.4478,0.7921 0.4478,1.478l-2.6895 0c0,0.4874 0.1049,0.8303 0.316,1.0301 0.2097,0.1984 0.4705,0.299 0.7794,0.299 0.2437,0 0.4435,-0.0609 0.5979,-0.1828 0.1559,-0.1218 0.2551,-0.3046 0.299,-0.5484l0.7312 0zm-0.7978 -1.1293c-0.0439,-0.3089 -0.1431,-0.5257 -0.299,-0.6476 -0.1544,-0.1218 -0.3542,-0.1828 -0.5965,-0.1828 -0.2225,0 -0.4209,0.061 -0.598,0.1828 -0.1771,0.1219 -0.3103,0.3387 -0.3996,0.6476l1.8931 0zm-3.5864 2.2913c-0.1105,0.0453 -0.2381,0.0836 -0.3812,0.1176 -0.1445,0.0326 -0.3386,0.0496 -0.5824,0.0496 -0.3981,0 -0.7184,-0.1105 -0.9621,-0.333 -0.2437,-0.2211 -0.3656,-0.5314 -0.3656,-0.9296l0 -1.9923 -1.1293 0 0 -0.5313 1.1293 0 0 -1.2952 0.6646 0 0 1.2952 1.3617 0 0 0.5313 -1.3617 0 0 2.0249c0,0.1772 0.0439,0.3274 0.1318,0.4492 0.0892,0.1219 0.255,0.1828 0.4988,0.1828 0.2437,0 0.4435,-0.0227 0.5979,-0.0666 0.1545,-0.0439 0.2877,-0.0992 0.3982,-0.1658l0 0.6632zm-5.5121 -4.6818l-0.6646 0 0 -0.8644 0.6646 0 0 0.8644zm0 4.7824l-0.6646 0 0 -3.7196 0.6646 0 0 3.7196zm-4.2184 0l-0.6646 0 0 -5.6793 0.6646 0 0 5.6793zm-4.2836 -4.7824l-0.6646 0 0 -0.8644 0.6646 0 0 0.8644zm0 4.7824l-0.6646 0 0 -3.7196 0.6646 0 0 3.7196zm-2.7575 0l-0.6646 0 0 -4.0526 -0.0652 0 -0.7977 4.0526 -0.5314 0 -0.7964 -4.0526 -0.0666 0 0 4.0526 -0.6645 0 0 -5.6793 1.0301 0 0.7298 3.7522 0.0666 0 0.7311 -3.7522 1.0288 0 0 5.6793zm-8.5686 0l-0.7964 0c-0.0439,-0.0439 -0.0779,-0.1049 -0.0991,-0.1828 -0.0227,-0.0779 -0.0341,-0.1715 -0.0341,-0.282 -0.1544,0.1771 -0.3429,0.3089 -0.5639,0.3982 -0.2225,0.0878 -0.4549,0.1332 -0.6986,0.1332 -0.3543,0 -0.6518,-0.0893 -0.8955,-0.2664 -0.2438,-0.1771 -0.3656,-0.4322 -0.3656,-0.7638 0,-0.3316 0.1105,-0.5979 0.3315,-0.7963 0.2211,-0.1998 0.5654,-0.333 1.0302,-0.3996 0.3103,-0.044 0.581,-0.0992 0.8134,-0.1658 0.2323,-0.0666 0.3485,-0.1545 0.3485,-0.265 0,-0.1332 -0.0496,-0.2664 -0.1487,-0.3996 -0.1006,-0.1318 -0.316,-0.1984 -0.6476,-0.1984 -0.2664,0 -0.4605,0.0496 -0.5824,0.1488 -0.1219,0.1006 -0.2041,0.2381 -0.248,0.4152l-0.7311 0c0.0439,-0.3542 0.2054,-0.6362 0.4817,-0.8459 0.2763,-0.2112 0.6363,-0.316 1.0798,-0.316 0.486,0 0.8516,0.1105 1.0953,0.3315 0.2438,0.2225 0.3656,0.5314 0.3656,0.931l0 1.8265c0,0.1318 0.0213,0.2537 0.0666,0.3642 0.0439,0.1119 0.1105,0.2225 0.1984,0.333zm-0.9296 -1.2286l0 -0.6645c-0.1332,0.0439 -0.2607,0.0822 -0.3811,0.1162 -0.1219,0.0326 -0.3274,0.0722 -0.615,0.1162 -0.3316,0.0439 -0.5484,0.1218 -0.6476,0.2324 -0.0992,0.1105 -0.1502,0.2437 -0.1502,0.3981 0,0.1332 0.051,0.2494 0.1502,0.3486 0.0992,0.1006 0.2494,0.1502 0.4478,0.1502 0.1998,0 0.4152,-0.0552 0.6476,-0.1658 0.2324,-0.1119 0.4151,-0.289 0.5483,-0.5314zm-4.7483 -3.5538l-0.6646 0 0 -0.8644 0.6646 0 0 0.8644zm0 4.7824l-0.6646 0 0 -3.7196 0.6646 0 0 3.7196zm-4.2184 0l-0.6646 0 0 -5.6793 0.6646 0 0 5.6793zm-2.8567 0l-0.7964 0c-0.0439,-0.0439 -0.0779,-0.1049 -0.0991,-0.1828 -0.0227,-0.0779 -0.034,-0.1715 -0.034,-0.282 -0.1545,0.1771 -0.343,0.3089 -0.564,0.3982 -0.2225,0.0878 -0.4549,0.1332 -0.6986,0.1332 -0.3543,0 -0.6518,-0.0893 -0.8955,-0.2664 -0.2438,-0.1771 -0.3656,-0.4322 -0.3656,-0.7638 0,-0.3316 0.1105,-0.5979 0.3315,-0.7963 0.2211,-0.1998 0.5654,-0.333 1.0302,-0.3996 0.3103,-0.044 0.581,-0.0992 0.8134,-0.1658 0.2324,-0.0666 0.3486,-0.1545 0.3486,-0.265 0,-0.1332 -0.0496,-0.2664 -0.1488,-0.3996 -0.1006,-0.1318 -0.316,-0.1984 -0.6476,-0.1984 -0.2664,0 -0.4605,0.0496 -0.5824,0.1488 -0.1219,0.1006 -0.204,0.2381 -0.248,0.4152l-0.7311 0c0.0439,-0.3542 0.2054,-0.6362 0.4817,-0.8459 0.2763,-0.2112 0.6363,-0.316 1.0798,-0.316 0.486,0 0.8516,0.1105 1.0953,0.3315 0.2438,0.2225 0.3656,0.5314 0.3656,0.931l0 1.8265c0,0.1318 0.0213,0.2537 0.0666,0.3642 0.0439,0.1119 0.1105,0.2225 0.1984,0.333zm-0.9295 -1.2286l0 -0.6645c-0.1333,0.0439 -0.2608,0.0822 -0.3812,0.1162 -0.1219,0.0326 -0.3274,0.0722 -0.615,0.1162 -0.3316,0.0439 -0.5484,0.1218 -0.6476,0.2324 -0.0992,0.1105 -0.1502,0.2437 -0.1502,0.3981 0,0.1332 0.051,0.2494 0.1502,0.3486 0.0992,0.1006 0.2494,0.1502 0.4478,0.1502 0.1998,0 0.4152,-0.0552 0.6476,-0.1658 0.2324,-0.1119 0.4151,-0.289 0.5484,-0.5314zm-3.4873 1.128c-0.1105,0.0453 -0.238,0.0836 -0.3812,0.1176 -0.1445,0.0326 -0.3386,0.0496 -0.5824,0.0496 -0.3981,0 -0.7184,-0.1105 -0.9621,-0.333 -0.2437,-0.2211 -0.3656,-0.5314 -0.3656,-0.9296l0 -1.9923 -1.1293 0 0 -0.5313 1.1293 0 0 -1.2952 0.6646 0 0 1.2952 1.3617 0 0 0.5313 -1.3617 0 0 2.0249c0,0.1772 0.0439,0.3274 0.1318,0.4492 0.0892,0.1219 0.255,0.1828 0.4988,0.1828 0.2437,0 0.4435,-0.0227 0.5979,-0.0666 0.1545,-0.0439 0.2877,-0.0992 0.3982,-0.1658l0 0.6632zm-4.0852 0.1006l-0.7964 0c-0.0439,-0.0439 -0.0779,-0.1049 -0.0991,-0.1828 -0.0227,-0.0779 -0.034,-0.1715 -0.034,-0.282 -0.1545,0.1771 -0.343,0.3089 -0.564,0.3982 -0.2225,0.0878 -0.4549,0.1332 -0.6986,0.1332 -0.3543,0 -0.6518,-0.0893 -0.8955,-0.2664 -0.2438,-0.1771 -0.3656,-0.4322 -0.3656,-0.7638 0,-0.3316 0.1105,-0.5979 0.3315,-0.7963 0.2211,-0.1998 0.5654,-0.333 1.0302,-0.3996 0.3103,-0.044 0.581,-0.0992 0.8134,-0.1658 0.2324,-0.0666 0.3486,-0.1545 0.3486,-0.265 0,-0.1332 -0.0496,-0.2664 -0.1488,-0.3996 -0.1006,-0.1318 -0.316,-0.1984 -0.6476,-0.1984 -0.2664,0 -0.4605,0.0496 -0.5824,0.1488 -0.1218,0.1006 -0.204,0.2381 -0.248,0.4152l-0.7311 0c0.0439,-0.3542 0.2054,-0.6362 0.4817,-0.8459 0.2764,-0.2112 0.6363,-0.316 1.0798,-0.316 0.486,0 0.8516,0.1105 1.0953,0.3315 0.2438,0.2225 0.3656,0.5314 0.3656,0.931l0 1.8265c0,0.1318 0.0213,0.2537 0.0666,0.3642 0.0439,0.1119 0.1106,0.2225 0.1984,0.333zm-0.9295 -1.2286l0 -0.6645c-0.1332,0.0439 -0.2608,0.0822 -0.3812,0.1162 -0.1219,0.0326 -0.3274,0.0722 -0.615,0.1162 -0.3316,0.0439 -0.5484,0.1218 -0.6476,0.2324 -0.0992,0.1105 -0.1502,0.2437 -0.1502,0.3981 0,0.1332 0.051,0.2494 0.1502,0.3486 0.0992,0.1006 0.2494,0.1502 0.4478,0.1502 0.1998,0 0.4152,-0.0552 0.6476,-0.1658 0.2324,-0.1119 0.4152,-0.289 0.5484,-0.5314zm-12.6177 -2.5233l-1.527 4.0173c-0.0893,0.3088 -0.2224,0.5425 -0.3995,0.6969 -0.177,0.1544 -0.398,0.2323 -0.6629,0.2323 -0.1105,0 -0.2167,-0.0056 -0.3159,-0.017 -0.0991,-0.0113 -0.1941,-0.0382 -0.2819,-0.0821l0 -0.6644c0.0878,0.0439 0.1771,0.0779 0.2649,0.0992 0.0893,0.0226 0.1657,0.034 0.2323,0.034 0.1771,0 0.2989,-0.0284 0.3655,-0.0836 0.0665,-0.0553 0.1331,-0.1827 0.1997,-0.381l-1.4604 -3.8516 0.7295 0 1.0624 2.9209 0.034 0 1.0284 -2.9209 0.7309 0zm-5.0797 1.8585c0,-0.4207 -0.0835,-0.7522 -0.2493,-0.9958 -0.1657,-0.2437 -0.415,-0.3655 -0.7465,-0.3655 -0.2663,0 -0.4929,0.1218 -0.6813,0.3655 -0.1884,0.2436 -0.2819,0.5751 -0.2819,0.9958 0,0.4207 0.0935,0.7479 0.2819,0.9802 0.1884,0.2324 0.415,0.3485 0.6813,0.3485 0.3315,0 0.5808,-0.1161 0.7465,-0.3485 0.1658,-0.2323 0.2493,-0.5595 0.2493,-0.9802z"/>
    <path id="_346670880" class="fil5" d="M55.4393 242.195l-1.0961 1.3996 -0.833 0 1.0977 -1.3996 0.8314 0zm-17.4624 9.4583l-4.4141 0 0 -7.3994 4.1981 0 0 0.8216 -3.203 0 0 2.2929 2.9427 0 0 0.8234 -2.9427 0 0 2.6381 3.419 0 0 0.8234zm138.46 0l-4.5009 0 0 -7.3994 0.9951 0 0 6.576 3.5058 0 0 0.8234zm-5.2357 0l-1.0393 0 -0.6056 -2.2929 -1.9034 0 -0.6055 2.2929 -1.0394 0 2.1637 -7.4861 0.8659 0 2.1636 7.4861zm-1.8609 -3.1163l-0.6923 -2.6382 -0.0868 0 -0.6923 2.6382 1.4714 0zm-5.7987 3.1163l-0.9951 0 0 -7.3994 0.9951 0 0 7.3994zm-3.5907 -2.9428c-0.0296,1.0966 -0.2603,1.8757 -0.6923,2.3372 -0.432,0.4616 -0.9526,0.6923 -1.5582,0.6923 -0.6923,0 -1.283,-0.2824 -1.7741,-0.8437 -0.4892,-0.563 -0.7348,-1.4639 -0.7348,-2.7045 0,-1.357 0.2382,-2.3649 0.7145,-3.0296 0.4744,-0.6627 1.0892,-0.995 1.8387,-0.995 0.6351,0 1.1613,0.2381 1.5785,0.7144 0.4191,0.4763 0.6129,1.1465 0.5852,2.0123l-0.9526 0c0,-0.635 -0.1015,-1.1114 -0.3028,-1.4289 -0.2012,-0.3175 -0.504,-0.4763 -0.9083,-0.4763 -0.4615,0 -0.8289,0.2382 -1.104,0.7145 -0.2732,0.4763 -0.4116,1.2775 -0.4116,2.4018 0,1.0375 0.1384,1.7667 0.4116,2.1858 0.2751,0.4172 0.6277,0.6259 1.0597,0.6259 0.3176,0 0.6056,-0.1514 0.8659,-0.4542 0.2603,-0.3028 0.3895,-0.8861 0.3895,-1.752l0.9951 0zm-5.3649 2.9428l-1.0394 0 -0.6055 -2.2929 -1.9034 0 -0.6055 2.2929 -1.0394 0 2.1637 -7.4861 0.8658 0 2.1637 7.4861zm-1.8609 -3.1163l-0.6923 -2.6382 -0.0868 0 -0.6923 2.6382 1.4714 0zm-3.9378 -3.4615l-3.5483 0 0 2.424 2.6824 0 0 0.8215 -2.6824 0 0 3.3323 -0.9951 0 0 -7.3994 4.5434 0 0 0.8216zm-10.9033 -0.8216l-2.0344 4.0671 0 3.3323 -0.9951 0 0 -3.3323 -2.0326 -4.0671 0.9951 0 1.5138 3.1588 0.0443 0 1.5138 -3.1588 0.9951 0zm-11.2928 7.3994l-4.5009 0 0 -7.3994 0.9951 0 0 6.576 3.5058 0 0 0.8234zm-5.2357 0l-1.0393 0 -0.6056 -2.2929 -1.9034 0 -0.6055 2.2929 -1.0394 0 2.1637 -7.4861 0.8659 0 2.1636 7.4861zm-1.8609 -3.1163l-0.6923 -2.6382 -0.0868 0 -0.6922 2.6382 1.4713 0zm-3.8067 3.1163l-1.0394 0 -1.5581 -3.2031 -1.1243 0 0 3.2031 -0.9951 0 0 -7.3994 2.1637 0c0.6923,0 1.2535,0.1662 1.6874,0.4985 0.4319,0.3305 0.6479,0.8714 0.6479,1.6209 0,0.5779 -0.144,1.0246 -0.432,1.3422 -0.288,0.3175 -0.6203,0.5187 -0.995,0.6055l1.6449 3.3323zm-1.2129 -5.28c0,-0.4024 -0.1219,-0.72 -0.3674,-0.9507 -0.2455,-0.2308 -0.6424,-0.3471 -1.1889,-0.3471l-0.9526 0 0 2.5532 1.211 0c0.3471,0 0.6499,-0.0942 0.9083,-0.2806 0.2603,-0.1883 0.3896,-0.5133 0.3896,-0.9748zm-4.4123 1.5581c0,1.357 -0.2104,2.3299 -0.6277,2.9206 -0.4191,0.5926 -1.0024,0.888 -1.752,0.888 -0.7513,0 -1.3421,-0.2954 -1.7741,-0.888 -0.4338,-0.5907 -0.6498,-1.5636 -0.6498,-2.9206 0,-1.355 0.216,-2.3224 0.6498,-2.8984 0.432,-0.5778 1.0228,-0.8658 1.7741,-0.8658 0.7496,0 1.3329,0.288 1.752,0.8658 0.4173,0.576 0.6277,1.5434 0.6277,2.8984zm-1.0394 0c0,-1.211 -0.1292,-2.0049 -0.3895,-2.3796 -0.2584,-0.3748 -0.576,-0.5631 -0.9508,-0.5631 -0.3766,0 -0.6997,0.1883 -0.9747,0.5631 -0.2732,0.3747 -0.4099,1.1686 -0.4099,2.3796 0,1.2111 0.1367,2.0123 0.4099,2.4019 0.275,0.3895 0.5981,0.5834 0.9747,0.5834 0.3748,0 0.6924,-0.1939 0.9508,-0.5834 0.2603,-0.3896 0.3895,-1.1908 0.3895,-2.4019zm-4.499 -1.427c0,0.6923 -0.2031,1.2406 -0.6055,1.643 -0.4043,0.4043 -0.9674,0.6056 -1.6892,0.6056l-1.2536 0 0 2.9003 -0.995 0 0 -7.3994 2.2486 0c0.7218,0 1.2849,0.2013 1.6892,0.6056 0.4024,0.4043 0.6055,0.9526 0.6055,1.6449zm-0.9951 0c0,-0.5483 -0.131,-0.9231 -0.3895,-1.1262 -0.2603,-0.2012 -0.6498,-0.3027 -1.1686,-0.3027l-0.9951 0 0 2.8559 0.9951 0c0.5188,0 0.9083,-0.1015 1.1686,-0.3027 0.2585,-0.2013 0.3895,-0.576 0.3895,-1.1243zm-4.4565 5.1489l-1.0394 0 -1.5582 -3.2031 -1.1243 0 0 3.2031 -0.995 0 0 -7.3994 2.1637 0c0.6923,0 1.2535,0.1662 1.6873,0.4985 0.432,0.3305 0.648,0.8714 0.648,1.6209 0,0.5779 -0.144,1.0246 -0.432,1.3422 -0.288,0.3175 -0.6203,0.5187 -0.995,0.6055l1.6449 3.3323zm-1.213 -5.28c0,-0.4024 -0.1218,-0.72 -0.3673,-0.9507 -0.2456,-0.2308 -0.6425,-0.3471 -1.1889,-0.3471l-0.9527 0 0 2.5532 1.2111 0c0.3471,0 0.6499,-0.0942 0.9083,-0.2806 0.2603,-0.1883 0.3895,-0.5133 0.3895,-0.9748zm-4.4122 1.5581c0,1.357 -0.2105,2.3299 -0.6277,2.9206 -0.4191,0.5926 -1.0025,0.888 -1.752,0.888 -0.7514,0 -1.3421,-0.2954 -1.7741,-0.888 -0.4339,-0.5907 -0.6499,-1.5636 -0.6499,-2.9206 0,-1.355 0.216,-2.3224 0.6499,-2.8984 0.432,-0.5778 1.0227,-0.8658 1.7741,-0.8658 0.7495,0 1.3329,0.288 1.752,0.8658 0.4172,0.576 0.6277,1.5434 0.6277,2.8984zm-1.0394 0c0,-1.211 -0.1292,-2.0049 -0.3895,-2.3796 -0.2585,-0.3748 -0.576,-0.5631 -0.9508,-0.5631 -0.3766,0 -0.6997,0.1883 -0.9748,0.5631 -0.2732,0.3747 -0.4098,1.1686 -0.4098,2.3796 0,1.2111 0.1366,2.0123 0.4098,2.4019 0.2751,0.3895 0.5982,0.5834 0.9748,0.5834 0.3748,0 0.6923,-0.1939 0.9508,-0.5834 0.2603,-0.3896 0.3895,-1.1908 0.3895,-2.4019zm-4.4566 0.7791c-0.0295,1.0966 -0.2603,1.8757 -0.6923,2.3372 -0.432,0.4616 -0.9526,0.6923 -1.5581,0.6923 -0.6923,0 -1.2831,-0.2824 -1.7741,-0.8437 -0.4893,-0.563 -0.7348,-1.4639 -0.7348,-2.7045 0,-1.357 0.2381,-2.3649 0.7144,-3.0296 0.4745,-0.6627 1.0893,-0.995 1.8388,-0.995 0.6351,0 1.1612,0.2381 1.5784,0.7144 0.4191,0.4763 0.613,1.1465 0.5853,2.0123l-0.9526 0c0,-0.635 -0.1016,-1.1114 -0.3028,-1.4289 -0.2012,-0.3175 -0.504,-0.4763 -0.9083,-0.4763 -0.4615,0 -0.8289,0.2382 -1.104,0.7145 -0.2732,0.4763 -0.4117,1.2775 -0.4117,2.4018 0,1.0375 0.1385,1.7667 0.4117,2.1858 0.2751,0.4172 0.6277,0.6259 1.0597,0.6259 0.3175,0 0.6055,-0.1514 0.8658,-0.4542 0.2603,-0.3028 0.3896,-0.8861 0.3896,-1.752l0.995 0zm-10.9033 2.9428l-1.0393 0 -0.6056 -2.2929 -1.9033 0 -0.6056 2.2929 -1.0393 0 2.1636 -7.4861 0.8659 0 2.1636 7.4861zm-1.8609 -3.1163l-0.6923 -2.6382 -0.0867 0 -0.6923 2.6382 1.4713 0zm-3.851 0.1735c-0.0295,1.0966 -0.2603,1.8757 -0.6923,2.3372 -0.432,0.4616 -0.9526,0.6923 -1.5581,0.6923 -0.6923,0 -1.2831,-0.2824 -1.7742,-0.8437 -0.4892,-0.563 -0.7347,-1.4639 -0.7347,-2.7045 0,-1.357 0.2381,-2.3649 0.7144,-3.0296 0.4745,-0.6627 1.0892,-0.995 1.8388,-0.995 0.635,0 1.1612,0.2381 1.5784,0.7144 0.4191,0.4763 0.6129,1.1465 0.5852,2.0123l-0.9526 0c0,-0.635 -0.1015,-1.1114 -0.3027,-1.4289 -0.2013,-0.3175 -0.504,-0.4763 -0.9083,-0.4763 -0.4616,0 -0.8289,0.2382 -1.104,0.7145 -0.2733,0.4763 -0.4117,1.2775 -0.4117,2.4018 0,1.0375 0.1384,1.7667 0.4117,2.1858 0.2751,0.4172 0.6277,0.6259 1.0597,0.6259 0.3175,0 0.6055,-0.1514 0.8658,-0.4542 0.2603,-0.3028 0.3895,-0.8861 0.3895,-1.752l0.9951 0zm-7.4861 2.9428l-0.9951 0 0 -7.3994 0.9951 0 0 7.3994zm-3.8067 -6.5778l-1.7317 0 0 6.5778 -0.9951 0 0 -6.5778 -1.7298 0 0 -0.8216 4.4566 0 0 0.8216zm-5.4517 6.5778l-4.4141 0 0 -7.3994 4.1981 0 0 0.8216 -3.203 0 0 2.2929 2.9427 0 0 0.8234 -2.9427 0 0 2.6381 3.419 0 0 0.8234zm-5.6251 -6.5778l-1.7317 0 0 6.5778 -0.9951 0 0 -6.5778 -1.7298 0 0 -0.8216 4.4566 0 0 0.8216zm-5.4517 4.5009c0,0.6627 -0.2104,1.1889 -0.6277,1.5784 -0.419,0.3895 -0.9877,0.5852 -1.7095,0.5852 -0.72,0 -1.2831,-0.203 -1.6874,-0.6055 -0.4043,-0.4043 -0.6055,-0.9101 -0.6055,-1.5157l0 -0.3027 0.9951 0 0 0.2603c0,0.432 0.1292,0.7643 0.3895,0.995 0.2603,0.2308 0.5631,0.3453 0.9083,0.3453 0.4615,0 0.8012,-0.1219 1.0172,-0.3674 0.216,-0.2456 0.3249,-0.5409 0.3249,-0.8862 0,-0.2898 -0.131,-0.5557 -0.3895,-0.8012 -0.2603,-0.2455 -0.6351,-0.4689 -1.1261,-0.6701 -0.6923,-0.2604 -1.1889,-0.5484 -1.4917,-0.8659 -0.3028,-0.3175 -0.4542,-0.6923 -0.4542,-1.1243 0,-0.6055 0.2087,-1.0966 0.6277,-1.4713 0.4173,-0.3748 0.9157,-0.5631 1.4917,-0.5631 0.7495,0 1.2905,0.2234 1.6228,0.6701 0.3323,0.4486 0.4984,0.9305 0.4984,1.4511l-0.9951 0c0.0277,-0.3175 -0.059,-0.6074 -0.2603,-0.8658 -0.2012,-0.2604 -0.491,-0.3896 -0.8658,-0.3896 -0.3452,0 -0.6203,0.0942 -0.8215,0.2806 -0.2031,0.1883 -0.3028,0.4394 -0.3028,0.7569 0,0.2604 0.0794,0.4837 0.2382,0.672 0.1587,0.1865 0.5686,0.4099 1.2332,0.6702 0.6332,0.2603 1.1243,0.5704 1.4714,0.9304 0.3452,0.36 0.5187,0.7717 0.5187,1.2333z"/>
    <g>
     <g>
      <path id="_346670784" class="fil4" d="M69.3363 268.654c-1.6402,0.0921 -3.0354,0.9693 -3.9008,2.2168l-3.989 0c-0.839,0.1401 -0.7444,0.9529 -0.7444,2.0155l0 9.2681c0,1.0533 -0.1125,1.8539 0.7677,2.0162l6.2872 0c0.8608,-0.124 0.7676,-0.9468 0.7676,-1.9556l0 -3.3289c3.3013,0.7436 6.0833,-1.7822 6.3198,-4.6577 0.2753,-3.3192 -2.4852,-5.7379 -5.5081,-5.5744zm-4.1732 14.4325l0 0c-0.0222,0.6584 -1.0092,0.71 -1.1238,0.1065 -0.0724,-0.3735 0.1146,-0.6225 0.4701,-0.6781 0.3767,-0.0627 0.6713,0.1767 0.6537,0.5716zm2.0674 -1.4431l0 0c-0.1691,0.144 -0.9339,0.0623 -1.2815,0.0623l-2.6752 0c-0.3372,0 -1.0963,0.0921 -1.2729,-0.0623 -0.1323,-0.1197 -0.0846,-0.7074 -0.0846,-1.1049l0 -7.6522c0,-0.3519 -0.0373,-0.468 0.2777,-0.5297 0.3347,-0.0691 0.9089,-0.0222 1.3149,-0.0222l1.2027 0c-0.4236,1.327 -0.334,2.8401 0.4615,4.2162 -0.2623,0.8809 -0.7185,1.8904 -0.8536,2.6921 1.0314,-0.1129 1.7944,-0.897 2.8161,-0.8572 0.0584,0.0043 0.1204,0.0157 0.1792,0.0308l0 2.1427c0,0.3856 0.0412,0.9733 -0.0843,1.0844zm0.8866 -3.8077l0 0c-0.2827,-0.1018 -0.6594,-0.3505 -0.9231,-0.3677 -0.5777,-0.029 -0.8648,0.4681 -1.5894,0.4322 0.1706,-0.4816 0.3186,-0.9859 0.487,-1.4725 -1.9301,-3.0716 -0.0143,-6.608 3.0587,-6.9169 2.2843,-0.2258 4.5502,1.2995 4.8398,3.6729 0.41,3.3583 -2.7297,5.7891 -5.873,4.652z"/>
      <path id="_346670736" class="fil4" d="M68.3555 271.533c0.2942,0.5902 0.7697,1.4453 0.0652,1.899 0.3988,0.7802 1.0324,1.327 1.8954,1.6517 0.3225,-0.1283 0.4182,-0.4788 0.6741,-0.6741 0.4755,0.1573 0.9034,0.363 1.2819,0.6114 0.1154,0.6289 -0.4365,1.1367 -0.9135,1.2245 -1.5489,0.276 -4.013,-1.8918 -4.223,-3.245 -0.1409,-0.892 0.2691,-1.6965 1.2199,-1.4675z"/>
     </g>
     <path id="_346670568" class="fil5" d="M76.8929 280.584c0,-0.0286 -0.002,-0.0717 -0.0061,-0.129 -0.0041,-0.0573 -0.0062,-0.1002 -0.0062,-0.1288 0,-0.6118 0.1658,-1.1581 0.4952,-1.6431 0.3294,-0.4828 0.8675,-0.9575 1.6164,-1.426 0.1841,-0.1146 0.446,-0.2721 0.7898,-0.4726 0.7038,-0.4154 1.156,-0.7284 1.3544,-0.9413 0.1842,-0.2005 0.3152,-0.403 0.395,-0.6117 0.0798,-0.2066 0.1206,-0.4481 0.1206,-0.7243 0,-0.5647 -0.1596,-1.0046 -0.4788,-1.3258 -0.3191,-0.3192 -0.7611,-0.4788 -1.3237,-0.4788 -0.6323,0 -1.1151,0.1841 -1.4507,0.5544 -0.3355,0.3704 -0.5074,0.9024 -0.5156,1.598l-0.798 0c0.0287,-0.9146 0.2824,-1.6205 0.7632,-2.1135 0.4829,-0.4932 1.156,-0.7407 2.0236,-0.7407 0.7979,0 1.4322,0.223 1.8987,0.6711 0.4685,0.448 0.7018,1.0516 0.7018,1.8107 0,0.3602 -0.0552,0.6793 -0.1658,0.9617 -0.1084,0.2824 -0.2823,0.5504 -0.5176,0.8062 -0.268,0.2905 -0.8184,0.671 -1.6531,1.1395 -0.264,0.1474 -0.4646,0.2619 -0.6057,0.3459 -0.6261,0.3682 -1.0824,0.7182 -1.3647,1.0537 -0.2844,0.3335 -0.442,0.7017 -0.4747,1.1049l4.7346 0 0 0.6895 -5.5326 0zm7.6134 -2.6497c0,0.6752 0.1698,1.2133 0.5095,1.6143 0.3396,0.4032 0.7938,0.6036 1.3647,0.6036 0.6117,0 1.0783,-0.1779 1.3995,-0.536 0.3212,-0.3581 0.4828,-0.8798 0.4828,-1.5632 0,-0.7161 -0.1616,-1.2685 -0.4849,-1.6614 -0.3233,-0.3908 -0.7815,-0.5872 -1.3728,-0.5872 -0.5505,0 -1.0047,0.2005 -1.3627,0.6036 -0.3581,0.401 -0.5361,0.9105 -0.5361,1.5263zm-0.1985 -1.4588c0.2148,-0.4317 0.5095,-0.7591 0.884,-0.9821 0.3744,-0.223 0.8163,-0.3356 1.3278,-0.3356 0.7857,0 1.4118,0.2578 1.8783,0.7735 0.4644,0.5155 0.6977,1.2112 0.6977,2.0869 0,0.8634 -0.2394,1.5468 -0.7161,2.0522 -0.4767,0.5054 -1.1233,0.759 -1.9397,0.759 -0.9534,0 -1.6839,-0.3417 -2.1872,-1.027 -0.5033,-0.6855 -0.755,-1.6778 -0.755,-2.977 0,-1.5652 0.268,-2.7643 0.8062,-3.5929 0.538,-0.8287 1.3114,-1.244 2.3222,-1.244 0.6671,0 1.2133,0.1965 1.6389,0.5893 0.4255,0.3948 0.669,0.9268 0.7284,1.5979l-0.7488 0c-0.0594,-0.4788 -0.2354,-0.8512 -0.5238,-1.1151 -0.2906,-0.2639 -0.6712,-0.3949 -1.1418,-0.3949 -0.712,0 -1.2583,0.3233 -1.6429,0.9678 -0.3826,0.6445 -0.5914,1.5919 -0.6282,2.842zm8.5116 4.1085l0 -6.8502c-0.1923,0.1718 -0.4501,0.2966 -0.7734,0.3744 -0.3232,0.0777 -0.7366,0.1166 -1.2399,0.1166l-0.1268 0 0 -0.5279 0.0532 0c0.7161,0 1.248,-0.137 1.5958,-0.4112 0.3479,-0.2721 0.5382,-0.6998 0.575,-1.2788l0.7141 -0.0061 0 8.5832 -0.798 0zm3.7321 -2.8358l0 -0.7735 2.9667 0 0 0.7735 -2.9667 0zm4.0061 0.6301l0.7979 -0.0061c0.0246,0.5463 0.2108,0.976 0.5565,1.289 0.3479,0.311 0.8144,0.4665 1.3975,0.4665 0.6077,0 1.0824,-0.1862 1.4241,-0.5606 0.3417,-0.3744 0.5115,-0.8942 0.5115,-1.5612 0,-0.6915 -0.176,-1.2358 -0.5299,-1.6306 -0.354,-0.395 -0.841,-0.5934 -1.4589,-0.5934 -0.3888,0 -0.7324,0.0736 -1.0312,0.2189 -0.3008,0.1453 -0.5402,0.356 -0.7202,0.6322l-0.6772 0 0.6486 -4.3867 4.2005 0 0 0.6773 -3.6194 0 -0.4195 2.7621c0.2066,-0.1841 0.4583,-0.3212 0.7508,-0.4133 0.2948,-0.092 0.6282,-0.1371 1.0047,-0.1371 0.8103,0 1.4589,0.2558 1.9438,0.7693 0.4848,0.5136 0.7284,1.2031 0.7284,2.0665 0,0.8778 -0.2497,1.5755 -0.7489,2.0891 -0.4992,0.5135 -1.1786,0.7692 -2.0379,0.7692 -0.8041,0 -1.4486,-0.2209 -1.9355,-0.6628 -0.489,-0.44 -0.7489,-1.0374 -0.7857,-1.7883zm7.3167 -3.6031c0,0.7161 0.1617,1.2665 0.4828,1.6553 0.3213,0.3867 0.7776,0.5811 1.3689,0.5811 0.5565,0 1.0128,-0.1985 1.3708,-0.5934 0.358,-0.3949 0.5361,-0.9003 0.5361,-1.5162 0,-0.6792 -0.1698,-1.2193 -0.5095,-1.6225 -0.3396,-0.4009 -0.798,-0.6015 -1.3729,-0.6015 -0.6118,0 -1.0762,0.178 -1.3974,0.5361 -0.3192,0.358 -0.4788,0.8778 -0.4788,1.5611zm0.0123 3.8793c0.0715,0.4911 0.2516,0.8635 0.536,1.1172 0.2864,0.2537 0.6691,0.3805 1.1478,0.3805 0.7121,0 1.2563,-0.3171 1.6308,-0.9493 0.3765,-0.6343 0.583,-1.5857 0.624,-2.8563 -0.2128,0.4358 -0.5054,0.7652 -0.8819,0.9923 -0.3744,0.2251 -0.8164,0.3376 -1.3238,0.3376 -0.7877,0 -1.4137,-0.2578 -1.8802,-0.7734 -0.4645,-0.5156 -0.6978,-1.2133 -0.6978,-2.0911 0,-0.8593 0.2374,-1.5427 0.7141,-2.0501 0.4747,-0.5075 1.1192,-0.7611 1.9356,-0.7611 0.9575,0 1.69,0.3396 2.1934,1.021 0.5032,0.6813 0.7549,1.6716 0.7549,2.9708 0,1.5735 -0.268,2.7745 -0.8041,3.599 -0.534,0.8246 -1.3115,1.2378 -2.3304,1.2378 -0.6793,0 -1.2256,-0.1902 -1.643,-0.5728 -0.4154,-0.3806 -0.6568,-0.9146 -0.7243,-1.6021l0.7489 0zm6.7683 -0.7202c0,0.6752 0.1698,1.2133 0.5095,1.6143 0.3396,0.4032 0.7938,0.6036 1.3647,0.6036 0.6118,0 1.0783,-0.1779 1.3995,-0.536 0.3212,-0.3581 0.4828,-0.8798 0.4828,-1.5632 0,-0.7161 -0.1616,-1.2685 -0.4848,-1.6614 -0.3234,-0.3908 -0.7816,-0.5872 -1.3729,-0.5872 -0.5505,0 -1.0047,0.2005 -1.3627,0.6036 -0.3581,0.401 -0.5361,0.9105 -0.5361,1.5263zm-0.1985 -1.4588c0.2148,-0.4317 0.5095,-0.7591 0.884,-0.9821 0.3744,-0.223 0.8163,-0.3356 1.3278,-0.3356 0.7857,0 1.4118,0.2578 1.8783,0.7735 0.4644,0.5155 0.6977,1.2112 0.6977,2.0869 0,0.8634 -0.2394,1.5468 -0.7161,2.0522 -0.4767,0.5054 -1.1233,0.759 -1.9396,0.759 -0.9535,0 -1.684,-0.3417 -2.1873,-1.027 -0.5033,-0.6855 -0.755,-1.6778 -0.755,-2.977 0,-1.5652 0.268,-2.7643 0.8062,-3.5929 0.538,-0.8287 1.3114,-1.244 2.3222,-1.244 0.6671,0 1.2133,0.1965 1.6389,0.5893 0.4255,0.3948 0.6691,0.9268 0.7284,1.5979l-0.7488 0c-0.0594,-0.4788 -0.2354,-0.8512 -0.5238,-1.1151 -0.2906,-0.2639 -0.6712,-0.3949 -1.1418,-0.3949 -0.712,0 -1.2583,0.3233 -1.6429,0.9678 -0.3826,0.6445 -0.5913,1.5919 -0.6282,2.842zm5.7106 1.2727l0 -0.7735 2.9668 0 0 0.7735 -2.9668 0zm5.379 2.8358c0.2353,-1.4302 0.6364,-2.7806 1.201,-4.0491 0.5668,-1.2687 1.2911,-2.4492 2.173,-3.5398l-4.4891 0 0 -0.7488 5.3402 0 0 0.7488c-0.9105,1.1029 -1.645,2.2794 -2.1995,3.5315 -0.5545,1.2502 -0.9432,2.6026 -1.1621,4.0574l-0.8635 0zm5.9806 -4.172c0,1.2543 0.1637,2.1894 0.4931,2.8052 0.3274,0.6158 0.8287,0.9228 1.4998,0.9228 0.669,0 1.1662,-0.3049 1.4895,-0.9167 0.3253,-0.6117 0.487,-1.5488 0.487,-2.8113 0,-1.2583 -0.1617,-2.1934 -0.487,-2.8051 -0.3233,-0.6118 -0.8205,-0.9166 -1.4895,-0.9166 -0.6711,0 -1.1724,0.3069 -1.4998,0.9207 -0.3294,0.6118 -0.4931,1.5468 -0.4931,2.801zm-0.8327 0c0,-1.4342 0.2394,-2.5289 0.7202,-3.2818 0.4788,-0.7529 1.1765,-1.1294 2.0911,-1.1294 0.9105,0 1.6102,0.3805 2.0952,1.1396 0.4848,0.7591 0.7284,1.8537 0.7284,3.2839 0,1.4302 -0.2415,2.5228 -0.7264,3.2758 -0.4829,0.7529 -1.1826,1.1293 -2.0972,1.1293 -0.9106,0 -1.6082,-0.3784 -2.0891,-1.1334 -0.4807,-0.755 -0.7222,-1.8497 -0.7222,-3.284zm7.3658 0c0,1.2543 0.1637,2.1894 0.4931,2.8052 0.3274,0.6158 0.8286,0.9228 1.4998,0.9228 0.669,0 1.1662,-0.3049 1.4895,-0.9167 0.3253,-0.6117 0.4869,-1.5488 0.4869,-2.8113 0,-1.2583 -0.1616,-2.1934 -0.4869,-2.8051 -0.3233,-0.6118 -0.8205,-0.9166 -1.4895,-0.9166 -0.6712,0 -1.1724,0.3069 -1.4998,0.9207 -0.3294,0.6118 -0.4931,1.5468 -0.4931,2.801zm-0.8327 0c0,-1.4342 0.2394,-2.5289 0.7201,-3.2818 0.4788,-0.7529 1.1766,-1.1294 2.0911,-1.1294 0.9105,0 1.6102,0.3805 2.0952,1.1396 0.4849,0.7591 0.7284,1.8537 0.7284,3.2839 0,1.4302 -0.2414,2.5228 -0.7263,3.2758 -0.4829,0.7529 -1.1827,1.1293 -2.0973,1.1293 -0.9105,0 -1.6081,-0.3784 -2.089,-1.1334 -0.4808,-0.755 -0.7222,-1.8497 -0.7222,-3.284zm6.4962 4.172c0,-0.0286 -0.0021,-0.0717 -0.0061,-0.129 -0.0041,-0.0573 -0.0062,-0.1002 -0.0062,-0.1288 0,-0.6118 0.1658,-1.1581 0.4952,-1.6431 0.3294,-0.4828 0.8675,-0.9575 1.6163,-1.426 0.1842,-0.1146 0.4461,-0.2721 0.7898,-0.4726 0.7039,-0.4154 1.156,-0.7284 1.3545,-0.9413 0.1841,-0.2005 0.3151,-0.403 0.3949,-0.6117 0.0798,-0.2066 0.1207,-0.4481 0.1207,-0.7243 0,-0.5647 -0.1596,-1.0046 -0.4788,-1.3258 -0.3192,-0.3192 -0.7611,-0.4788 -1.3237,-0.4788 -0.6323,0 -1.1152,0.1841 -1.4508,0.5544 -0.3355,0.3704 -0.5073,0.9024 -0.5155,1.598l-0.798 0c0.0287,-0.9146 0.2824,-1.6205 0.7632,-2.1135 0.4828,-0.4932 1.156,-0.7407 2.0236,-0.7407 0.7979,0 1.4322,0.223 1.8987,0.6711 0.4685,0.448 0.7018,1.0516 0.7018,1.8107 0,0.3602 -0.0552,0.6793 -0.1658,0.9617 -0.1084,0.2824 -0.2823,0.5504 -0.5176,0.8062 -0.268,0.2905 -0.8184,0.671 -1.6532,1.1395 -0.2639,0.1474 -0.4645,0.2619 -0.6056,0.3459 -0.6261,0.3682 -1.0824,0.7182 -1.3648,1.0537 -0.2844,0.3335 -0.4419,0.7017 -0.4746,1.1049l4.7345 0 0 0.6895 -5.5325 0z"/>
    </g>
   </g>
  </g>
 </g>
</svg>
